0
SECTION
2
ENTITIES
0
LINE
8
0
10
30.0
20
0.0
30
-100.0
11
29.991514
21
0.56539375
31
-100.251305
0
LINE
8
0
10
29.991514
20
0.56539375
30
-100.251305
11
29.96606
21
1.1302295
31
-100.50244
0
LINE
8
0
10
29.96606
20
1.1302295
30
-100.50244
11
29.923683
21
1.6939504
31
-100.753265
0
LINE
8
0
10
29.923683
20
1.6939504
30
-100.753265
11
29.864422
21
2.256001
31
-101.00362
0
LINE
8
0
10
29.864422
20
2.256001
30
-101.00362
11
29.788357
21
2.8158286
31
-101.253334
0
LINE
8
0
10
29.788357
20
2.8158286
30
-101.253334
11
29.695583
21
3.3728843
31
-101.50226
0
LINE
8
0
10
29.695583
20
3.3728843
30
-101.50226
11
29.586212
21
3.926623
31
-101.75023
0
LINE
8
0
10
29.586212
20
3.926623
30
-101.75023
11
29.46039
21
4.476505
31
-101.9971
0
LINE
8
0
10
29.46039
20
4.476505
30
-101.9971
11
29.318264
21
5.021996
31
-102.24271
0
LINE
8
0
10
29.318264
20
5.021996
30
-102.24271
11
29.160013
21
5.56257
31
-102.4869
0
LINE
8
0
10
29.160013
20
5.56257
30
-102.4869
11
28.985836
21
6.0977073
31
-102.72952
0
LINE
8
0
10
28.985836
20
6.0977073
30
-102.72952
11
28.795948
21
6.6268973
31
-102.97041
0
LINE
8
0
10
28.795948
20
6.6268973
30
-102.97041
11
28.590584
21
7.149638
31
-103.209435
0
LINE
8
0
10
28.590584
20
7.149638
30
-103.209435
11
28.369997
21
7.665438
31
-103.44643
0
LINE
8
0
10
28.369997
20
7.665438
30
-103.44643
11
28.134459
21
8.173816
31
-103.681244
0
LINE
8
0
10
28.134459
20
8.173816
30
-103.681244
11
27.884258
21
8.674303
31
-103.913734
0
LINE
8
0
10
27.884258
20
8.674303
30
-103.913734
11
27.619703
21
9.166442
31
-104.14375
0
LINE
8
0
10
27.619703
20
9.166442
30
-104.14375
11
27.341118
21
9.649786
31
-104.371155
0
LINE
8
0
10
27.341118
20
9.649786
30
-104.371155
11
27.048838
21
10.123909
31
-104.595795
0
LINE
8
0
10
27.048838
20
10.123909
30
-104.595795
11
26.743221
21
10.58839
31
-104.817535
0
LINE
8
0
10
26.743221
20
10.58839
30
-104.817535
11
26.42464
21
11.042831
31
-105.03623
0
LINE
8
0
10
26.42464
20
11.042831
30
-105.03623
11
26.093475
21
11.48684
31
-105.25175
0
LINE
8
0
10
26.093475
20
11.48684
30
-105.25175
11
25.750124
21
11.920051
31
-105.46394
0
LINE
8
0
10
25.750124
20
11.920051
30
-105.46394
11
25.395
21
12.342108
31
-105.67269
0
LINE
8
0
10
25.395
20
12.342108
30
-105.67269
11
25.028524
21
12.75267
31
-105.87785
0
LINE
8
0
10
25.028524
20
12.75267
30
-105.87785
11
24.65113
21
13.1514225
31
-106.0793
0
LINE
8
0
10
24.65113
20
13.1514225
30
-106.0793
11
24.26327
21
13.538061
31
-106.27692
0
LINE
8
0
10
24.26327
20
13.538061
30
-106.27692
11
23.86539
21
13.912301
31
-106.47056
0
LINE
8
0
10
23.86539
20
13.912301
30
-106.47056
11
23.457956
21
14.273878
31
-106.66012
0
LINE
8
0
10
23.457956
20
14.273878
30
-106.66012
11
23.041443
21
14.622545
31
-106.845474
0
LINE
8
0
10
23.041443
20
14.622545
30
-106.845474
11
22.616333
21
14.958076
31
-107.0265
0
LINE
8
0
10
22.616333
20
14.958076
30
-107.0265
11
22.183111
21
15.280258
31
-107.203094
0
LINE
8
0
10
22.183111
20
15.280258
30
-107.203094
11
21.742275
21
15.588909
31
-107.37513
0
LINE
8
0
10
21.742275
20
15.588909
30
-107.37513
11
21.294312
21
15.88386
31
-107.54251
0
LINE
8
0
10
21.294312
20
15.88386
30
-107.54251
11
20.839737
21
16.164957
31
-107.70513
0
LINE
8
0
10
20.839737
20
16.164957
30
-107.70513
11
20.379051
21
16.432077
31
-107.862885
0
LINE
8
0
10
20.379051
20
16.432077
30
-107.862885
11
19.91276
21
16.685114
31
-108.01567
0
LINE
8
0
10
19.91276
20
16.685114
30
-108.01567
11
19.44138
21
16.923977
31
-108.16339
0
LINE
8
0
10
19.44138
20
16.923977
30
-108.16339
11
18.965414
21
17.148598
31
-108.30596
0
LINE
8
0
10
18.965414
20
17.148598
30
-108.30596
11
18.48538
21
17.358929
31
-108.44328
0
LINE
8
0
10
18.48538
20
17.358929
30
-108.44328
11
18.00179
21
17.554947
31
-108.575264
0
LINE
8
0
10
18.00179
20
17.554947
30
-108.575264
11
17.515146
21
17.736645
31
-108.701836
0
LINE
8
0
10
17.515146
20
17.736645
30
-108.701836
11
17.02596
21
17.904034
31
-108.822914
0
LINE
8
0
10
17.02596
20
17.904034
30
-108.822914
11
16.534735
21
18.057148
31
-108.938416
0
LINE
8
0
10
16.534735
20
18.057148
30
-108.938416
11
16.041964
21
18.196037
31
-109.04827
0
LINE
8
0
10
16.041964
20
18.196037
30
-109.04827
11
15.548149
21
18.320782
31
-109.15241
0
LINE
8
0
10
15.548149
20
18.320782
30
-109.15241
11
15.053774
21
18.431461
31
-109.25077
0
LINE
8
0
10
15.053774
20
18.431461
30
-109.25077
11
14.559316
21
18.528193
31
-109.34329
0
LINE
8
0
10
14.559316
20
18.528193
30
-109.34329
11
14.065258
21
18.611103
31
-109.4299
0
LINE
8
0
10
14.065258
20
18.611103
30
-109.4299
11
13.572062
21
18.68034
31
-109.51057
0
LINE
8
0
10
13.572062
20
18.68034
30
-109.51057
11
13.080186
21
18.736065
31
-109.58522
0
LINE
8
0
10
13.080186
20
18.736065
30
-109.58522
11
12.590075
21
18.778458
31
-109.65382
0
LINE
8
0
10
12.590075
20
18.778458
30
-109.65382
11
12.102171
21
18.807718
31
-109.71632
0
LINE
8
0
10
12.102171
20
18.807718
30
-109.71632
11
11.6168995
21
18.824059
31
-109.77268
0
LINE
8
0
10
11.6168995
20
18.824059
30
-109.77268
11
11.134678
21
18.82771
31
-109.822876
0
LINE
8
0
10
11.134678
20
18.82771
30
-109.822876
11
10.655905
21
18.818918
31
-109.86686
0
LINE
8
0
10
10.655905
20
18.818918
30
-109.86686
11
10.180973
21
18.79794
31
-109.90462
0
LINE
8
0
10
10.180973
20
18.79794
30
-109.90462
11
9.710262
21
18.765047
31
-109.93611
0
LINE
8
0
10
9.710262
20
18.765047
30
-109.93611
11
9.244132
21
18.72053
31
-109.961334
0
LINE
8
0
10
9.244132
20
18.72053
30
-109.961334
11
8.782934
21
18.664686
31
-109.98027
0
LINE
8
0
10
8.782934
20
18.664686
30
-109.98027
11
8.327001
21
18.597828
31
-109.9929
0
LINE
8
0
10
8.327001
20
18.597828
30
-109.9929
11
7.876654
21
18.520273
31
-109.99921
0
LINE
8
0
10
7.876654
20
18.520273
30
-109.99921
11
7.4321914
21
18.43236
31
-109.99921
0
LINE
8
0
10
7.4321914
20
18.43236
30
-109.99921
11
6.993903
21
18.334429
31
-109.9929
0
LINE
8
0
10
6.993903
20
18.334429
30
-109.9929
11
6.5620656
21
18.226831
31
-109.98027
0
LINE
8
0
10
6.5620656
20
18.226831
30
-109.98027
11
6.1369205
21
18.10993
31
-109.961334
0
LINE
8
0
10
6.1369205
20
18.10993
30
-109.961334
11
5.7187104
21
17.984089
31
-109.93611
0
LINE
8
0
10
5.7187104
20
17.984089
30
-109.93611
11
5.307655
21
17.849686
31
-109.90462
0
LINE
8
0
10
5.307655
20
17.849686
30
-109.90462
11
4.903958
21
17.707102
31
-109.86686
0
LINE
8
0
10
4.903958
20
17.707102
30
-109.86686
11
4.507798
21
17.556719
31
-109.822876
0
LINE
8
0
10
4.507798
20
17.556719
30
-109.822876
11
4.1193466
21
17.398932
31
-109.77268
0
LINE
8
0
10
4.1193466
20
17.398932
30
-109.77268
11
3.7387488
21
17.234133
31
-109.71632
0
LINE
8
0
10
3.7387488
20
17.234133
30
-109.71632
11
3.3661323
21
17.06272
31
-109.65382
0
LINE
8
0
10
3.3661323
20
17.06272
30
-109.65382
11
3.001611
21
16.885088
31
-109.58522
0
LINE
8
0
10
3.001611
20
16.885088
30
-109.58522
11
2.6452782
21
16.701641
31
-109.51057
0
LINE
8
0
10
2.6452782
20
16.701641
30
-109.51057
11
2.297214
21
16.51278
31
-109.42991
0
LINE
8
0
10
2.297214
20
16.51278
30
-109.42991
11
1.9574672
21
16.318901
31
-109.34329
0
LINE
8
0
10
1.9574672
20
16.318901
30
-109.34329
11
1.626081
21
16.120403
31
-109.25077
0
LINE
8
0
10
1.626081
20
16.120403
30
-109.25077
11
1.303077
21
15.917686
31
-109.15241
0
LINE
8
0
10
1.303077
20
15.917686
30
-109.15241
11
0.988461
21
15.7111435
31
-109.04827
0
LINE
8
0
10
0.988461
20
15.7111435
30
-109.04827
11
0.6822174
21
15.5011635
31
-108.938416
0
LINE
8
0
10
0.6822174
20
15.5011635
30
-108.938416
11
0.38431343
21
15.288133
31
-108.822914
0
LINE
8
0
10
0.38431343
20
15.288133
30
-108.822914
11
0.094704926
21
15.072431
31
-108.701836
0
LINE
8
0
10
0.094704926
20
15.072431
30
-108.701836
11
-0.18667614
21
14.854431
31
-108.575264
0
LINE
8
0
10
-0.18667614
20
14.854431
30
-108.575264
11
-0.45990872
21
14.634505
31
-108.443275
0
LINE
8
0
10
-0.45990872
20
14.634505
30
-108.443275
11
-0.72508955
21
14.413015
31
-108.30596
0
LINE
8
0
10
-0.72508955
20
14.413015
30
-108.30596
11
-0.9823276
21
14.190312
31
-108.16339
0
LINE
8
0
10
-0.9823276
20
14.190312
30
-108.16339
11
-1.2317572
21
13.966741
31
-108.01567
0
LINE
8
0
10
-1.2317572
20
13.966741
30
-108.01567
11
-1.4735163
21
13.742633
31
-107.862885
0
LINE
8
0
10
-1.4735163
20
13.742633
30
-107.862885
11
-1.7077614
21
13.518314
31
-107.70513
0
LINE
8
0
10
-1.7077614
20
13.518314
30
-107.70513
11
-1.9346602
21
13.294107
31
-107.54251
0
LINE
8
0
10
-1.9346602
20
13.294107
30
-107.54251
11
-2.1544008
21
13.070306
31
-107.37513
0
LINE
8
0
10
-2.1544008
20
13.070306
30
-107.37513
11
-2.3671756
21
12.847204
31
-107.203094
0
LINE
8
0
10
-2.3671756
20
12.847204
30
-107.203094
11
-2.5731916
21
12.625084
31
-107.026505
0
LINE
8
0
10
-2.5731916
20
12.625084
30
-107.026505
11
-2.7726693
21
12.404208
31
-106.845474
0
LINE
8
0
10
-2.7726693
20
12.404208
30
-106.845474
11
-2.965837
21
12.184832
31
-106.66012
0
LINE
8
0
10
-2.965837
20
12.184832
30
-106.66012
11
-3.152934
21
11.967199
31
-106.47056
0
LINE
8
0
10
-3.152934
20
11.967199
30
-106.47056
11
-3.33421
21
11.75153
31
-106.27692
0
LINE
8
0
10
-3.33421
20
11.75153
30
-106.27692
11
-3.5099242
21
11.538039
31
-106.0793
0
LINE
8
0
10
-3.5099242
20
11.538039
30
-106.0793
11
-3.68034
21
11.326921
31
-105.87785
0
LINE
8
0
10
-3.68034
20
11.326921
30
-105.87785
11
-3.8457322
21
11.118359
31
-105.67269
0
LINE
8
0
10
-3.8457322
20
11.118359
30
-105.67269
11
-4.0063767
21
10.9125185
31
-105.46394
0
LINE
8
0
10
-4.0063767
20
10.9125185
30
-105.46394
11
-4.1625633
21
10.709548
31
-105.25175
0
LINE
8
0
10
-4.1625633
20
10.709548
30
-105.25175
11
-4.314582
21
10.509585
31
-105.03623
0
LINE
8
0
10
-4.314582
20
10.509585
30
-105.03623
11
-4.462724
21
10.312748
31
-104.817535
0
LINE
8
0
10
-4.462724
20
10.312748
30
-104.817535
11
-4.6072917
21
10.119137
31
-104.595795
0
LINE
8
0
10
-4.6072917
20
10.119137
30
-104.595795
11
-4.7485824
21
9.92884
31
-104.371155
0
LINE
8
0
10
-4.7485824
20
9.92884
30
-104.371155
11
-4.8869023
21
9.741925
31
-104.14375
0
LINE
8
0
10
-4.8869023
20
9.741925
30
-104.14375
11
-5.022554
21
9.558445
31
-103.913734
0
LINE
8
0
10
-5.022554
20
9.558445
30
-103.913734
11
-5.1558404
21
9.378441
31
-103.681244
0
LINE
8
0
10
-5.1558404
20
9.378441
30
-103.681244
11
-5.28707
21
9.201928
31
-103.446434
0
LINE
8
0
10
-5.28707
20
9.201928
30
-103.446434
11
-5.416543
21
9.0289135
31
-103.209435
0
LINE
8
0
10
-5.416543
20
9.0289135
30
-103.209435
11
-5.544562
21
8.859383
31
-102.97041
0
LINE
8
0
10
-5.544562
20
8.859383
30
-102.97041
11
-5.671424
21
8.693309
31
-102.729515
0
LINE
8
0
10
-5.671424
20
8.693309
30
-102.729515
11
-5.797422
21
8.530649
31
-102.4869
0
LINE
8
0
10
-5.797422
20
8.530649
30
-102.4869
11
-5.9228525
21
8.37134
31
-102.24271
0
LINE
8
0
10
-5.9228525
20
8.37134
30
-102.24271
11
-6.0479984
21
8.215307
31
-101.9971
0
LINE
8
0
10
-6.0479984
20
8.215307
30
-101.9971
11
-6.1731424
21
8.062461
31
-101.75023
0
LINE
8
0
10
-6.1731424
20
8.062461
30
-101.75023
11
-6.2985544
21
7.912695
31
-101.50226
0
LINE
8
0
10
-6.2985544
20
7.912695
30
-101.50226
11
-6.4245024
21
7.765889
31
-101.253334
0
LINE
8
0
10
-6.4245024
20
7.765889
30
-101.253334
11
-6.5512486
21
7.621908
31
-101.00362
0
LINE
8
0
10
-6.5512486
20
7.621908
30
-101.00362
11
-6.6790414
21
7.480604
31
-100.753265
0
LINE
8
0
10
-6.6790414
20
7.480604
30
-100.753265
11
-6.8081226
21
7.341814
31
-100.50244
0
LINE
8
0
10
-6.8081226
20
7.341814
30
-100.50244
11
-6.9387236
21
7.205365
31
-100.251305
0
LINE
8
0
10
-6.9387236
20
7.205365
30
-100.251305
11
-7.071068
21
7.071068
31
-100.0
0
LINE
8
0
10
-7.071068
20
7.071068
30
-100.0
11
-7.205365
21
6.9387236
31
-99.748695
0
LINE
8
0
10
-7.205365
20
6.9387236
30
-99.748695
11
-7.341816
21
6.8081207
31
-99.49756
0
LINE
8
0
10
-7.341816
20
6.8081207
30
-99.49756
11
-7.480606
21
6.6790395
31
-99.24673
0
LINE
8
0
10
-7.480606
20
6.6790395
30
-99.24673
11
-7.6219087
21
6.5512486
31
-98.99638
0
LINE
8
0
10
-7.6219087
20
6.5512486
30
-98.99638
11
-7.765888
21
6.4245033
31
-98.74667
0
LINE
8
0
10
-7.765888
20
6.4245033
30
-98.74667
11
-7.912695
21
6.2985544
31
-98.49775
0
LINE
8
0
10
-7.912695
20
6.2985544
30
-98.49775
11
-8.062462
21
6.1731424
31
-98.24977
0
LINE
8
0
10
-8.062462
20
6.1731424
30
-98.24977
11
-8.215307
21
6.0479984
31
-98.0029
0
LINE
8
0
10
-8.215307
20
6.0479984
30
-98.0029
11
-8.37134
21
5.9228525
31
-97.75729
0
LINE
8
0
10
-8.37134
20
5.9228525
30
-97.75729
11
-8.530649
21
5.797422
31
-97.5131
0
LINE
8
0
10
-8.530649
20
5.797422
30
-97.5131
11
-8.69331
21
5.6714206
31
-97.27048
0
LINE
8
0
10
-8.69331
20
5.6714206
30
-97.27048
11
-8.859383
21
5.5445614
31
-97.02959
0
LINE
8
0
10
-8.859383
20
5.5445614
30
-97.02959
11
-9.0289135
21
5.416543
31
-96.790565
0
LINE
8
0
10
-9.0289135
20
5.416543
30
-96.790565
11
-9.201928
21
5.2870693
31
-96.55357
0
LINE
8
0
10
-9.201928
20
5.2870693
30
-96.55357
11
-9.378441
21
5.15584
31
-96.318756
0
LINE
8
0
10
-9.378441
20
5.15584
30
-96.318756
11
-9.558445
21
5.022554
31
-96.086266
0
LINE
8
0
10
-9.558445
20
5.022554
30
-96.086266
11
-9.741925
21
4.886902
31
-95.85625
0
LINE
8
0
10
-9.741925
20
4.886902
30
-95.85625
11
-9.92884
21
4.7485824
31
-95.628845
0
LINE
8
0
10
-9.92884
20
4.7485824
30
-95.628845
11
-10.119135
21
4.607292
31
-95.404205
0
LINE
8
0
10
-10.119135
20
4.607292
30
-95.404205
11
-10.312747
21
4.4627247
31
-95.182465
0
LINE
8
0
10
-10.312747
20
4.4627247
30
-95.182465
11
-10.509585
21
4.314582
31
-94.96377
0
LINE
8
0
10
-10.509585
20
4.314582
30
-94.96377
11
-10.709551
21
4.162564
31
-94.74825
0
LINE
8
0
10
-10.709551
20
4.162564
30
-94.74825
11
-10.9125185
21
4.0063767
31
-94.53606
0
LINE
8
0
10
-10.9125185
20
4.0063767
30
-94.53606
11
-11.1183605
21
3.84573
31
-94.32731
0
LINE
8
0
10
-11.1183605
20
3.84573
30
-94.32731
11
-11.326925
21
3.6803384
31
-94.12215
0
LINE
8
0
10
-11.326925
20
3.6803384
30
-94.12215
11
-11.538037
21
3.5099258
31
-93.9207
0
LINE
8
0
10
-11.538037
20
3.5099258
30
-93.9207
11
-11.751529
21
3.3342125
31
-93.72309
0
LINE
8
0
10
-11.751529
20
3.3342125
30
-93.72309
11
-11.967197
21
3.1529355
31
-93.52944
0
LINE
8
0
10
-11.967197
20
3.1529355
30
-93.52944
11
-12.184834
21
2.9658375
31
-93.33988
0
LINE
8
0
10
-12.184834
20
2.9658375
30
-93.33988
11
-12.404208
21
2.7726688
31
-93.154526
0
LINE
8
0
10
-12.404208
20
2.7726688
30
-93.154526
11
-12.625083
21
2.573191
31
-92.9735
0
LINE
8
0
10
-12.625083
20
2.573191
30
-92.9735
11
-12.847206
21
2.3671744
31
-92.796906
0
LINE
8
0
10
-12.847206
20
2.3671744
30
-92.796906
11
-13.070306
21
2.1543992
31
-92.62487
0
LINE
8
0
10
-13.070306
20
2.1543992
30
-92.62487
11
-13.2941065
21
1.9346617
31
-92.45749
0
LINE
8
0
10
-13.2941065
20
1.9346617
30
-92.45749
11
-13.518319
21
1.7077606
31
-92.29487
0
LINE
8
0
10
-13.518319
20
1.7077606
30
-92.29487
11
-13.742633
21
1.4735146
31
-92.137115
0
LINE
8
0
10
-13.742633
20
1.4735146
30
-92.137115
11
-13.966741
21
1.2317586
31
-91.98433
0
LINE
8
0
10
-13.966741
20
1.2317586
30
-91.98433
11
-14.190311
21
0.98232913
31
-91.83661
0
LINE
8
0
10
-14.190311
20
0.98232913
30
-91.83661
11
-14.413015
21
0.72508764
31
-91.69404
0
LINE
8
0
10
-14.413015
20
0.72508764
30
-91.69404
11
-14.634509
21
0.45990688
31
-91.55672
0
LINE
8
0
10
-14.634509
20
0.45990688
30
-91.55672
11
-14.854429
21
0.1866777
31
-91.424736
0
LINE
8
0
10
-14.854429
20
0.1866777
30
-91.424736
11
-15.072431
21
-0.09470332
31
-91.298164
0
LINE
8
0
10
-15.072431
20
-0.09470332
30
-91.298164
11
-15.288132
21
-0.38431358
31
-91.177086
0
LINE
8
0
10
-15.288132
20
-0.38431358
30
-91.177086
11
-15.501162
21
-0.68221754
31
-91.061584
0
LINE
8
0
10
-15.501162
20
-0.68221754
30
-91.061584
11
-15.711146
21
-0.9884633
31
-90.95173
0
LINE
8
0
10
-15.711146
20
-0.9884633
30
-90.95173
11
-15.91769
21
-1.3030814
31
-90.84759
0
LINE
8
0
10
-15.91769
20
-1.3030814
30
-90.84759
11
-16.120405
21
-1.6260852
31
-90.74923
0
LINE
8
0
10
-16.120405
20
-1.6260852
30
-90.74923
11
-16.318897
21
-1.957463
31
-90.65671
0
LINE
8
0
10
-16.318897
20
-1.957463
30
-90.65671
11
-16.51278
21
-2.2972102
31
-90.5701
0
LINE
8
0
10
-16.51278
20
-2.2972102
30
-90.5701
11
-16.701643
21
-2.6452785
31
-90.48943
0
LINE
8
0
10
-16.701643
20
-2.6452785
30
-90.48943
11
-16.885088
21
-3.0016112
31
-90.41478
0
LINE
8
0
10
-16.885088
20
-3.0016112
30
-90.41478
11
-17.06272
21
-3.3661327
31
-90.34618
0
LINE
8
0
10
-17.06272
20
-3.3661327
30
-90.34618
11
-17.234135
21
-3.738749
31
-90.28368
0
LINE
8
0
10
-17.234135
20
-3.738749
30
-90.28368
11
-17.398932
21
-4.119349
31
-90.22732
0
LINE
8
0
10
-17.398932
20
-4.119349
30
-90.22732
11
-17.556723
21
-4.5078034
31
-90.177124
0
LINE
8
0
10
-17.556723
20
-4.5078034
30
-90.177124
11
-17.707098
21
-4.9039574
31
-90.13314
0
LINE
8
0
10
-17.707098
20
-4.9039574
30
-90.13314
11
-17.849684
21
-5.3076525
31
-90.09538
0
LINE
8
0
10
-17.849684
20
-5.3076525
30
-90.09538
11
-17.984087
21
-5.7187076
31
-90.06389
0
LINE
8
0
10
-17.984087
20
-5.7187076
30
-90.06389
11
-18.10993
21
-6.136918
31
-90.038666
0
LINE
8
0
10
-18.10993
20
-6.136918
30
-90.038666
11
-18.226831
21
-6.562063
31
-90.01973
0
LINE
8
0
10
-18.226831
20
-6.562063
30
-90.01973
11
-18.334427
21
-6.993906
31
-90.0071
0
LINE
8
0
10
-18.334427
20
-6.993906
30
-90.0071
11
-18.432362
21
-7.4321957
31
-90.00079
0
LINE
8
0
10
-18.432362
20
-7.4321957
30
-90.00079
11
-18.520273
21
-7.8766513
31
-90.00079
0
LINE
8
0
10
-18.520273
20
-7.8766513
30
-90.00079
11
-18.59783
21
-8.327003
31
-90.0071
0
LINE
8
0
10
-18.59783
20
-8.327003
30
-90.0071
11
-18.664688
21
-8.782936
31
-90.01973
0
LINE
8
0
10
-18.664688
20
-8.782936
30
-90.01973
11
-18.72053
21
-9.244134
31
-90.038666
0
LINE
8
0
10
-18.72053
20
-9.244134
30
-90.038666
11
-18.765049
21
-9.710266
31
-90.06389
0
LINE
8
0
10
-18.765049
20
-9.710266
30
-90.06389
11
-18.797937
21
-10.180979
31
-90.09538
0
LINE
8
0
10
-18.797937
20
-10.180979
30
-90.09538
11
-18.818918
21
-10.655905
31
-90.13314
0
LINE
8
0
10
-18.818918
20
-10.655905
30
-90.13314
11
-18.82771
21
-11.134672
31
-90.177124
0
LINE
8
0
10
-18.82771
20
-11.134672
30
-90.177124
11
-18.824059
21
-11.616899
31
-90.22732
0
LINE
8
0
10
-18.824059
20
-11.616899
30
-90.22732
11
-18.807716
21
-12.102169
31
-90.28368
0
LINE
8
0
10
-18.807716
20
-12.102169
30
-90.28368
11
-18.778456
21
-12.590074
31
-90.34618
0
LINE
8
0
10
-18.778456
20
-12.590074
30
-90.34618
11
-18.736065
21
-13.080186
31
-90.41478
0
LINE
8
0
10
-18.736065
20
-13.080186
30
-90.41478
11
-18.68034
21
-13.572064
31
-90.48943
0
LINE
8
0
10
-18.68034
20
-13.572064
30
-90.48943
11
-18.611103
21
-14.065262
31
-90.5701
0
LINE
8
0
10
-18.611103
20
-14.065262
30
-90.5701
11
-18.528196
21
-14.559325
31
-90.65671
0
LINE
8
0
10
-18.528196
20
-14.559325
30
-90.65671
11
-18.431463
21
-15.053768
31
-90.74923
0
LINE
8
0
10
-18.431463
20
-15.053768
30
-90.74923
11
-18.32078
21
-15.548145
31
-90.84759
0
LINE
8
0
10
-18.32078
20
-15.548145
30
-90.84759
11
-18.196037
21
-16.041964
31
-90.95173
0
LINE
8
0
10
-18.196037
20
-16.041964
30
-90.95173
11
-18.057148
21
-16.534735
31
-91.061584
0
LINE
8
0
10
-18.057148
20
-16.534735
30
-91.061584
11
-17.904036
21
-17.025963
31
-91.177086
0
LINE
8
0
10
-17.904036
20
-17.025963
30
-91.177086
11
-17.736643
21
-17.515148
31
-91.298164
0
LINE
8
0
10
-17.736643
20
-17.515148
30
-91.298164
11
-17.554949
21
-18.001793
31
-91.424736
0
LINE
8
0
10
-17.554949
20
-18.001793
30
-91.424736
11
-17.358929
21
-18.485378
31
-91.55672
0
LINE
8
0
10
-17.358929
20
-18.485378
30
-91.55672
11
-17.148598
21
-18.965414
31
-91.694046
0
LINE
8
0
10
-17.148598
20
-18.965414
30
-91.694046
11
-16.923975
21
-19.44138
31
-91.83661
0
LINE
8
0
10
-16.923975
20
-19.44138
30
-91.83661
11
-16.685112
21
-19.912762
31
-91.98433
0
LINE
8
0
10
-16.685112
20
-19.912762
30
-91.98433
11
-16.43208
21
-20.379047
31
-92.137115
0
LINE
8
0
10
-16.43208
20
-20.379047
30
-92.137115
11
-16.164955
21
-20.839745
31
-92.29487
0
LINE
8
0
10
-16.164955
20
-20.839745
30
-92.29487
11
-15.88386
21
-21.294317
31
-92.45749
0
LINE
8
0
10
-15.88386
20
-21.294317
30
-92.45749
11
-15.588911
21
-21.74227
31
-92.62486
0
LINE
8
0
10
-15.588911
20
-21.74227
30
-92.62486
11
-15.280256
21
-22.183115
31
-92.79691
0
LINE
8
0
10
-15.280256
20
-22.183115
30
-92.79691
11
-14.958076
21
-22.616333
31
-92.9735
0
LINE
8
0
10
-14.958076
20
-22.616333
30
-92.9735
11
-14.62255
21
-23.041441
31
-93.154526
0
LINE
8
0
10
-14.62255
20
-23.041441
30
-93.154526
11
-14.273878
21
-23.457958
31
-93.33988
0
LINE
8
0
10
-14.273878
20
-23.457958
30
-93.33988
11
-13.912304
21
-23.865385
31
-93.529434
0
LINE
8
0
10
-13.912304
20
-23.865385
30
-93.529434
11
-13.538057
21
-24.26327
31
-93.72308
0
LINE
8
0
10
-13.538057
20
-24.26327
30
-93.72308
11
-13.1514225
21
-24.65113
31
-93.9207
0
LINE
8
0
10
-13.1514225
20
-24.65113
30
-93.9207
11
-12.752675
21
-25.028522
31
-94.12215
0
LINE
8
0
10
-12.752675
20
-25.028522
30
-94.12215
11
-12.342105
21
-25.395004
31
-94.32732
0
LINE
8
0
10
-12.342105
20
-25.395004
30
-94.32732
11
-11.920052
21
-25.750124
31
-94.53606
0
LINE
8
0
10
-11.920052
20
-25.750124
30
-94.53606
11
-11.4868355
21
-26.09348
31
-94.74825
0
LINE
8
0
10
-11.4868355
20
-26.09348
30
-94.74825
11
-11.0428295
21
-26.42464
31
-94.96377
0
LINE
8
0
10
-11.0428295
20
-26.42464
30
-94.96377
11
-10.588394
21
-26.743221
31
-95.182465
0
LINE
8
0
10
-10.588394
20
-26.743221
30
-95.182465
11
-10.123906
21
-27.048843
31
-95.404205
0
LINE
8
0
10
-10.123906
20
-27.048843
30
-95.404205
11
-9.649788
21
-27.341118
31
-95.62884
0
LINE
8
0
10
-9.649788
20
-27.341118
30
-95.62884
11
-9.166447
21
-27.619701
31
-95.85624
0
LINE
8
0
10
-9.166447
20
-27.619701
30
-95.85624
11
-8.6743
21
-27.884258
31
-96.086266
0
LINE
8
0
10
-8.6743
20
-27.884258
30
-96.086266
11
-8.173818
21
-28.134459
31
-96.318756
0
LINE
8
0
10
-8.173818
20
-28.134459
30
-96.318756
11
-7.665433
21
-28.37
31
-96.55357
0
LINE
8
0
10
-7.665433
20
-28.37
30
-96.55357
11
-7.149637
21
-28.590584
31
-96.790565
0
LINE
8
0
10
-7.149637
20
-28.590584
30
-96.790565
11
-6.6268883
21
-28.79595
31
-97.02959
0
LINE
8
0
10
-6.6268883
20
-28.79595
30
-97.02959
11
-6.0977173
21
-28.985834
31
-97.27048
0
LINE
8
0
10
-6.0977173
20
-28.985834
30
-97.27048
11
-5.562572
21
-29.160013
31
-97.5131
0
LINE
8
0
10
-5.562572
20
-29.160013
30
-97.5131
11
-5.0220037
21
-29.318264
31
-97.757286
0
LINE
8
0
10
-5.0220037
20
-29.318264
30
-97.757286
11
-4.476504
21
-29.46039
31
-98.0029
0
LINE
8
0
10
-4.476504
20
-29.46039
30
-98.0029
11
-3.9266272
21
-29.586212
31
-98.24977
0
LINE
8
0
10
-3.9266272
20
-29.586212
30
-98.24977
11
-3.3728795
21
-29.695583
31
-98.49775
0
LINE
8
0
10
-3.3728795
20
-29.695583
30
-98.49775
11
-2.8158295
21
-29.788357
31
-98.746666
0
LINE
8
0
10
-2.8158295
20
-29.788357
30
-98.746666
11
-2.255993
21
-29.864422
31
-98.99639
0
LINE
8
0
10
-2.255993
20
-29.864422
30
-98.99639
11
-1.6939478
21
-29.923683
31
-99.246735
0
LINE
8
0
10
-1.6939478
20
-29.923683
30
-99.246735
11
-1.1302323
21
-29.96606
31
-99.49756
0
LINE
8
0
10
-1.1302323
20
-29.96606
30
-99.49756
11
-0.56538785
21
-29.991514
31
-99.7487
0
LINE
8
0
10
-0.56538785
20
-29.991514
30
-99.7487
11
3.577464E-7
21
-30.0
31
-100.0
0
LINE
8
0
10
3.577464E-7
20
-30.0
30
-100.0
11
0.56538856
21
-29.991514
31
-100.2513
0
LINE
8
0
10
0.56538856
20
-29.991514
30
-100.2513
11
1.130233
21
-29.96606
31
-100.50244
0
LINE
8
0
10
1.130233
20
-29.96606
30
-100.50244
11
1.6939485
21
-29.923683
31
-100.753265
0
LINE
8
0
10
1.6939485
20
-29.923683
30
-100.753265
11
2.256008
21
-29.864422
31
-101.003624
0
LINE
8
0
10
2.256008
20
-29.864422
30
-101.003624
11
2.8158302
21
-29.788353
31
-101.253334
0
LINE
8
0
10
2.8158302
20
-29.788353
30
-101.253334
11
3.3728945
21
-29.69558
31
-101.50226
0
LINE
8
0
10
3.3728945
20
-29.69558
30
-101.50226
11
3.9266276
21
-29.586212
31
-101.75023
0
LINE
8
0
10
3.9266276
20
-29.586212
30
-101.75023
11
4.476504
21
-29.46039
31
-101.9971
0
LINE
8
0
10
4.476504
20
-29.46039
30
-101.9971
11
5.022004
21
-29.318264
31
-102.242714
0
LINE
8
0
10
5.022004
20
-29.318264
30
-102.242714
11
5.562559
21
-29.160019
31
-102.48689
0
LINE
8
0
10
5.562559
20
-29.160019
30
-102.48689
11
6.0977182
21
-28.985834
31
-102.72952
0
LINE
8
0
10
6.0977182
20
-28.985834
30
-102.72952
11
6.6268897
21
-28.795952
31
-102.97041
0
LINE
8
0
10
6.6268897
20
-28.795952
30
-102.97041
11
7.149638
21
-28.590584
31
-103.209435
0
LINE
8
0
10
7.149638
20
-28.590584
30
-103.209435
11
7.665433
21
-28.369999
31
-103.44643
0
LINE
8
0
10
7.665433
20
-28.369999
30
-103.44643
11
8.173807
21
-28.134462
31
-103.68124
0
LINE
8
0
10
8.173807
20
-28.134462
30
-103.68124
11
8.674301
21
-27.884258
31
-103.913734
0
LINE
8
0
10
8.674301
20
-27.884258
30
-103.913734
11
9.166435
21
-27.619707
31
-104.14375
0
LINE
8
0
10
9.166435
20
-27.619707
30
-104.14375
11
9.64979
21
-27.341118
31
-104.371155
0
LINE
8
0
10
9.64979
20
-27.341118
30
-104.371155
11
10.123906
21
-27.048838
31
-104.595795
0
LINE
8
0
10
10.123906
20
-27.048838
30
-104.595795
11
10.588394
21
-26.743221
31
-104.81754
0
LINE
8
0
10
10.588394
20
-26.743221
30
-104.81754
11
11.0428295
21
-26.42464
31
-105.03623
0
LINE
8
0
10
11.0428295
20
-26.42464
30
-105.03623
11
11.486847
21
-26.093472
31
-105.25175
0
LINE
8
0
10
11.486847
20
-26.093472
30
-105.25175
11
11.920053
21
-25.750124
31
-105.46394
0
LINE
8
0
10
11.920053
20
-25.750124
30
-105.46394
11
12.342104
21
-25.395002
31
-105.67269
0
LINE
8
0
10
12.342104
20
-25.395002
30
-105.67269
11
12.752674
21
-25.028519
31
-105.87785
0
LINE
8
0
10
12.752674
20
-25.028519
30
-105.87785
11
13.151424
21
-24.651134
31
-106.0793
0
LINE
8
0
10
13.151424
20
-24.651134
30
-106.0793
11
13.538067
21
-24.263264
31
-106.27692
0
LINE
8
0
10
13.538067
20
-24.263264
30
-106.27692
11
13.912304
21
-23.865385
31
-106.47056
0
LINE
8
0
10
13.912304
20
-23.865385
30
-106.47056
11
14.273886
21
-23.457945
31
-106.660126
0
LINE
8
0
10
14.273886
20
-23.457945
30
-106.660126
11
14.622549
21
-23.04144
31
-106.845474
0
LINE
8
0
10
14.622549
20
-23.04144
30
-106.845474
11
14.958067
21
-22.616344
31
-107.0265
0
LINE
8
0
10
14.958067
20
-22.616344
30
-107.0265
11
15.280256
21
-22.183115
31
-107.20309
0
LINE
8
0
10
15.280256
20
-22.183115
30
-107.20309
11
15.588904
21
-21.742283
31
-107.37513
0
LINE
8
0
10
15.588904
20
-21.742283
30
-107.37513
11
15.883858
21
-21.294315
31
-107.54251
0
LINE
8
0
10
15.883858
20
-21.294315
30
-107.54251
11
16.164955
21
-20.83974
31
-107.70513
0
LINE
8
0
10
16.164955
20
-20.83974
30
-107.70513
11
16.43208
21
-20.379047
31
-107.862885
0
LINE
8
0
10
16.43208
20
-20.379047
30
-107.862885
11
16.685112
21
-19.912764
31
-108.01567
0
LINE
8
0
10
16.685112
20
-19.912764
30
-108.01567
11
16.923971
21
-19.441383
31
-108.16339
0
LINE
8
0
10
16.923971
20
-19.441383
30
-108.16339
11
17.148594
21
-18.965414
31
-108.30596
0
LINE
8
0
10
17.148594
20
-18.965414
30
-108.30596
11
17.358929
21
-18.485388
31
-108.443275
0
LINE
8
0
10
17.358929
20
-18.485388
30
-108.443275
11
17.55495
21
-18.001787
31
-108.575264
0
LINE
8
0
10
17.55495
20
-18.001787
30
-108.575264
11
17.736643
21
-17.515148
31
-108.701836
0
LINE
8
0
10
17.736643
20
-17.515148
30
-108.701836
11
17.904036
21
-17.025955
31
-108.822914
0
LINE
8
0
10
17.904036
20
-17.025955
30
-108.822914
11
18.057148
21
-16.534733
31
-108.938416
0
LINE
8
0
10
18.057148
20
-16.534733
30
-108.938416
11
18.19604
21
-16.041971
31
-109.04827
0
LINE
8
0
10
18.19604
20
-16.041971
30
-109.04827
11
18.320784
21
-15.548145
31
-109.15241
0
LINE
8
0
10
18.320784
20
-15.548145
30
-109.15241
11
18.431461
21
-15.053772
31
-109.25077
0
LINE
8
0
10
18.431461
20
-15.053772
30
-109.25077
11
18.528196
21
-14.559308
31
-109.34329
0
LINE
8
0
10
18.528196
20
-14.559308
30
-109.34329
11
18.611105
21
-14.065255
31
-109.42991
0
LINE
8
0
10
18.611105
20
-14.065255
30
-109.42991
11
18.68034
21
-13.57205
31
-109.51057
0
LINE
8
0
10
18.68034
20
-13.57205
30
-109.51057
11
18.736065
21
-13.080178
31
-109.58522
0
LINE
8
0
10
18.736065
20
-13.080178
30
-109.58522
11
18.778454
21
-12.590085
31
-109.65382
0
LINE
8
0
10
18.778454
20
-12.590085
30
-109.65382
11
18.807716
21
-12.102175
31
-109.71632
0
LINE
8
0
10
18.807716
20
-12.102175
30
-109.71632
11
18.82406
21
-11.616909
31
-109.77268
0
LINE
8
0
10
18.82406
20
-11.616909
30
-109.77268
11
18.827713
21
-11.134678
31
-109.822876
0
LINE
8
0
10
18.827713
20
-11.134678
30
-109.822876
11
18.818916
21
-10.6559105
31
-109.86686
0
LINE
8
0
10
18.818916
20
-10.6559105
30
-109.86686
11
18.79794
21
-10.180971
31
-109.90462
0
LINE
8
0
10
18.79794
20
-10.180971
30
-109.90462
11
18.765047
21
-9.710265
31
-109.93611
0
LINE
8
0
10
18.765047
20
-9.710265
30
-109.93611
11
18.720533
21
-9.244141
31
-109.961334
0
LINE
8
0
10
18.720533
20
-9.244141
30
-109.961334
11
18.664688
21
-8.782935
31
-109.98027
0
LINE
8
0
10
18.664688
20
-8.782935
30
-109.98027
11
18.597828
21
-8.327006
31
-109.9929
0
LINE
8
0
10
18.597828
20
-8.327006
30
-109.9929
11
18.520273
21
-7.876651
31
-109.99921
0
LINE
8
0
10
18.520273
20
-7.876651
30
-109.99921
11
18.432358
21
-7.4321933
31
-109.99921
0
LINE
8
0
10
18.432358
20
-7.4321933
30
-109.99921
11
18.334425
21
-6.9938993
31
-109.9929
0
LINE
8
0
10
18.334425
20
-6.9938993
30
-109.9929
11
18.226833
21
-6.5620623
31
-109.98027
0
LINE
8
0
10
18.226833
20
-6.5620623
30
-109.98027
11
18.109928
21
-6.1369123
31
-109.961334
0
LINE
8
0
10
18.109928
20
-6.1369123
30
-109.961334
11
17.984087
21
-5.7187076
31
-109.93611
0
LINE
8
0
10
17.984087
20
-5.7187076
30
-109.93611
11
17.849684
21
-5.3076563
31
-109.90462
0
LINE
8
0
10
17.849684
20
-5.3076563
30
-109.90462
11
17.707102
21
-4.903953
31
-109.86686
0
LINE
8
0
10
17.707102
20
-4.903953
30
-109.86686
11
17.556715
21
-4.5077972
31
-109.822876
0
LINE
8
0
10
17.556715
20
-4.5077972
30
-109.822876
11
17.398926
21
-4.1193385
31
-109.77268
0
LINE
8
0
10
17.398926
20
-4.1193385
30
-109.77268
11
17.234133
21
-3.738744
31
-109.71632
0
LINE
8
0
10
17.234133
20
-3.738744
30
-109.71632
11
17.062716
21
-3.3661227
31
-109.65382
0
LINE
8
0
10
17.062716
20
-3.3661227
30
-109.65382
11
16.885086
21
-3.0016148
31
-109.58522
0
LINE
8
0
10
16.885086
20
-3.0016148
30
-109.58522
11
16.701647
21
-2.645287
31
-109.51057
0
LINE
8
0
10
16.701647
20
-2.645287
30
-109.51057
11
16.51278
21
-2.297214
31
-109.4299
0
LINE
8
0
10
16.51278
20
-2.297214
30
-109.4299
11
16.318907
21
-1.9574716
31
-109.34329
0
LINE
8
0
10
16.318907
20
-1.9574716
30
-109.34329
11
16.120407
21
-1.626081
31
-109.25077
0
LINE
8
0
10
16.120407
20
-1.626081
30
-109.25077
11
15.917686
21
-1.3030806
31
-109.15241
0
LINE
8
0
10
15.917686
20
-1.3030806
30
-109.15241
11
15.711138
21
-0.9884587
31
-109.04827
0
LINE
8
0
10
15.711138
20
-0.9884587
30
-109.04827
11
15.5011635
21
-0.68221724
31
-108.938416
0
LINE
8
0
10
15.5011635
20
-0.68221724
30
-108.938416
11
15.288136
21
-0.38431704
31
-108.822914
0
LINE
8
0
10
15.288136
20
-0.38431704
30
-108.822914
11
15.072432
21
-0.09470296
31
-108.701836
0
LINE
8
0
10
15.072432
20
-0.09470296
30
-108.701836
11
14.85443
21
0.18667452
31
-108.575264
0
LINE
8
0
10
14.85443
20
0.18667452
30
-108.575264
11
14.634502
21
0.4599105
31
-108.443275
0
LINE
8
0
10
14.634502
20
0.4599105
30
-108.443275
11
14.413015
21
0.72508806
31
-108.30596
0
LINE
8
0
10
14.413015
20
0.72508806
30
-108.30596
11
14.19031
21
0.9823327
31
-108.16339
0
LINE
8
0
10
14.19031
20
0.9823327
30
-108.16339
11
13.966741
21
1.2317588
31
-108.01567
0
LINE
8
0
10
13.966741
20
1.2317588
30
-108.01567
11
13.74263
21
1.4735146
31
-107.862885
0
LINE
8
0
10
13.74263
20
1.4735146
30
-107.862885
11
13.518312
21
1.7077631
31
-107.70513
0
LINE
8
0
10
13.518312
20
1.7077631
30
-107.70513
11
13.294106
21
1.9346619
31
-107.54251
0
LINE
8
0
10
13.294106
20
1.9346619
30
-107.54251
11
13.070301
21
2.154405
31
-107.37513
0
LINE
8
0
10
13.070301
20
2.154405
30
-107.37513
11
12.847204
21
2.3671775
31
-107.203094
0
LINE
8
0
10
12.847204
20
2.3671775
30
-107.203094
11
12.625079
21
2.573197
31
-107.0265
0
LINE
8
0
10
12.625079
20
2.573197
30
-107.0265
11
12.404211
21
2.772667
31
-106.845474
0
LINE
8
0
10
12.404211
20
2.772667
30
-106.845474
11
12.18484
21
2.9658332
31
-106.660126
0
LINE
8
0
10
12.18484
20
2.9658332
30
-106.660126
11
11.967202
21
3.1529336
31
-106.470566
0
LINE
8
0
10
11.967202
20
3.1529336
30
-106.470566
11
11.751532
21
3.3342075
31
-106.27692
0
LINE
8
0
10
11.751532
20
3.3342075
30
-106.27692
11
11.538037
21
3.509924
31
-106.0793
0
LINE
8
0
10
11.538037
20
3.509924
30
-106.0793
11
11.326923
21
3.680338
31
-105.87785
0
LINE
8
0
10
11.326923
20
3.680338
30
-105.87785
11
11.118359
21
3.8457322
31
-105.67269
0
LINE
8
0
10
11.118359
20
3.8457322
30
-105.67269
11
10.912521
21
4.0063777
31
-105.46394
0
LINE
8
0
10
10.912521
20
4.0063777
30
-105.46394
11
10.709549
21
4.1625614
31
-105.25175
0
LINE
8
0
10
10.709549
20
4.1625614
30
-105.25175
11
10.509584
21
4.314581
31
-105.03623
0
LINE
8
0
10
10.509584
20
4.314581
30
-105.03623
11
10.312749
21
4.4627237
31
-104.817535
0
LINE
8
0
10
10.312749
20
4.4627237
30
-104.817535
11
10.119134
21
4.6072917
31
-104.595795
0
LINE
8
0
10
10.119134
20
4.6072917
30
-104.595795
11
9.92884
21
4.748583
31
-104.37116
0
LINE
8
0
10
9.92884
20
4.748583
30
-104.37116
11
9.741923
21
4.8869047
31
-104.14375
0
LINE
8
0
10
9.741923
20
4.8869047
30
-104.14375
11
9.558443
21
5.0225534
31
-103.913734
0
LINE
8
0
10
9.558443
20
5.0225534
30
-103.913734
11
9.378435
21
5.155843
31
-103.68124
0
LINE
8
0
10
9.378435
20
5.155843
30
-103.68124
11
9.201926
21
5.287071
31
-103.44643
0
LINE
8
0
10
9.201926
20
5.287071
30
-103.44643
11
9.0289135
21
5.416543
31
-103.20944
0
LINE
8
0
10
9.0289135
20
5.416543
30
-103.20944
11
8.859381
21
5.5445633
31
-102.97041
0
LINE
8
0
10
8.859381
20
5.5445633
30
-102.97041
11
8.693313
21
5.6714196
31
-102.72952
0
LINE
8
0
10
8.693313
20
5.6714196
30
-102.72952
11
8.530644
21
5.797425
31
-102.48689
0
LINE
8
0
10
8.530644
20
5.797425
30
-102.48689
11
8.371343
21
5.922852
31
-102.242714
0
LINE
8
0
10
8.371343
20
5.922852
30
-102.242714
11
8.215307
21
6.0479994
31
-101.9971
0
LINE
8
0
10
8.215307
20
6.0479994
30
-101.9971
11
8.062463
21
6.1731396
31
-101.75023
0
LINE
8
0
10
8.062463
20
6.1731396
30
-101.75023
11
7.912698
21
6.298551
31
-101.50226
0
LINE
8
0
10
7.912698
20
6.298551
30
-101.50226
11
7.765889
21
6.4245024
31
-101.253334
0
LINE
8
0
10
7.765889
20
6.4245024
30
-101.253334
11
7.62191
21
6.551247
31
-101.003624
0
LINE
8
0
10
7.62191
20
6.551247
30
-101.003624
11
7.480604
21
6.6790414
31
-100.75327
0
LINE
8
0
10
7.480604
20
6.6790414
30
-100.75327
11
7.341815
21
6.808121
31
-100.50244
0
LINE
8
0
10
7.341815
20
6.808121
30
-100.50244
11
7.2053633
21
6.938725
31
-100.2513
0
LINE
8
0
10
7.2053633
20
6.938725
30
-100.2513
11
7.071068
21
7.071068
31
-100.0
0
LINE
8
0
10
7.071068
20
7.071068
30
-100.0
11
6.9387245
21
7.2053633
31
-99.7487
0
LINE
8
0
10
6.9387245
20
7.2053633
30
-99.7487
11
6.8081207
21
7.341816
31
-99.49756
0
LINE
8
0
10
6.8081207
20
7.341816
30
-99.49756
11
6.6790414
21
7.480604
31
-99.24673
0
LINE
8
0
10
6.6790414
20
7.480604
30
-99.24673
11
6.5512466
21
7.62191
31
-98.996376
0
LINE
8
0
10
6.5512466
20
7.62191
30
-98.996376
11
6.4245024
21
7.76589
31
-98.746666
0
LINE
8
0
10
6.4245024
20
7.76589
30
-98.746666
11
6.298551
21
7.912698
31
-98.49774
0
LINE
8
0
10
6.298551
20
7.912698
30
-98.49774
11
6.1731396
21
8.062463
31
-98.24977
0
LINE
8
0
10
6.1731396
20
8.062463
30
-98.24977
11
6.0479984
21
8.215307
31
-98.0029
0
LINE
8
0
10
6.0479984
20
8.215307
30
-98.0029
11
5.9228516
21
8.371344
31
-97.757286
0
LINE
8
0
10
5.9228516
20
8.371344
30
-97.757286
11
5.797425
21
8.530644
31
-97.51311
0
LINE
8
0
10
5.797425
20
8.530644
30
-97.51311
11
5.6714196
21
8.693313
31
-97.27048
0
LINE
8
0
10
5.6714196
20
8.693313
30
-97.27048
11
5.5445633
21
8.859381
31
-97.02959
0
LINE
8
0
10
5.5445633
20
8.859381
30
-97.02959
11
5.416543
21
9.0289135
31
-96.79056
0
LINE
8
0
10
5.416543
20
9.0289135
30
-96.79056
11
5.2870708
21
9.201926
31
-96.55357
0
LINE
8
0
10
5.2870708
20
9.201926
30
-96.55357
11
5.155843
21
9.378436
31
-96.31876
0
LINE
8
0
10
5.155843
20
9.378436
30
-96.31876
11
5.0225525
21
9.558444
31
-96.086266
0
LINE
8
0
10
5.0225525
20
9.558444
30
-96.086266
11
4.8869042
21
9.741923
31
-95.85625
0
LINE
8
0
10
4.8869042
20
9.741923
30
-95.85625
11
4.7485833
21
9.928842
31
-95.62884
0
LINE
8
0
10
4.7485833
20
9.928842
30
-95.62884
11
4.607292
21
10.119135
31
-95.404205
0
LINE
8
0
10
4.607292
20
10.119135
30
-95.404205
11
4.4627233
21
10.312749
31
-95.182465
0
LINE
8
0
10
4.4627233
20
10.312749
30
-95.182465
11
4.314581
21
10.509584
31
-94.96377
0
LINE
8
0
10
4.314581
20
10.509584
30
-94.96377
11
4.162561
21
10.709549
31
-94.74825
0
LINE
8
0
10
4.162561
20
10.709549
30
-94.74825
11
4.006377
21
10.912521
31
-94.53606
0
LINE
8
0
10
4.006377
20
10.912521
30
-94.53606
11
3.8457322
21
11.118359
31
-94.32731
0
LINE
8
0
10
3.8457322
20
11.118359
30
-94.32731
11
3.680338
21
11.326924
31
-94.12215
0
LINE
8
0
10
3.680338
20
11.326924
30
-94.12215
11
3.509923
21
11.538037
31
-93.9207
0
LINE
8
0
10
3.509923
20
11.538037
30
-93.9207
11
3.3342075
21
11.7515335
31
-93.72308
0
LINE
8
0
10
3.3342075
20
11.7515335
30
-93.72308
11
3.1529336
21
11.967203
31
-93.529434
0
LINE
8
0
10
3.1529336
20
11.967203
30
-93.529434
11
2.9658327
21
12.18484
31
-93.339874
0
LINE
8
0
10
2.9658327
20
12.18484
30
-93.339874
11
2.7726665
21
12.404211
31
-93.154526
0
LINE
8
0
10
2.7726665
20
12.404211
30
-93.154526
11
2.573197
21
12.62508
31
-92.9735
0
LINE
8
0
10
2.573197
20
12.62508
30
-92.9735
11
2.3671775
21
12.847205
31
-92.796906
0
LINE
8
0
10
2.3671775
20
12.847205
30
-92.796906
11
2.1544046
21
13.070302
31
-92.62487
0
LINE
8
0
10
2.1544046
20
13.070302
30
-92.62487
11
1.9346614
21
13.2941065
31
-92.45749
0
LINE
8
0
10
1.9346614
20
13.2941065
30
-92.45749
11
1.7077626
21
13.518312
31
-92.29487
0
LINE
8
0
10
1.7077626
20
13.518312
30
-92.29487
11
1.4735141
21
13.74263
31
-92.137115
0
LINE
8
0
10
1.4735141
20
13.74263
30
-92.137115
11
1.2317586
21
13.966742
31
-91.98433
0
LINE
8
0
10
1.2317586
20
13.966742
30
-91.98433
11
0.98233217
21
14.19031
31
-91.83661
0
LINE
8
0
10
0.98233217
20
14.19031
30
-91.83661
11
0.7250876
21
14.413017
31
-91.69404
0
LINE
8
0
10
0.7250876
20
14.413017
30
-91.69404
11
0.45991
21
14.634503
31
-91.556725
0
LINE
8
0
10
0.45991
20
14.634503
30
-91.556725
11
0.186674
21
14.854431
31
-91.424736
0
LINE
8
0
10
0.186674
20
14.854431
30
-91.424736
11
-0.09470351
21
15.0724325
31
-91.298164
0
LINE
8
0
10
-0.09470351
20
15.0724325
30
-91.298164
11
-0.38431758
21
15.288136
31
-91.177086
0
LINE
8
0
10
-0.38431758
20
15.288136
30
-91.177086
11
-0.68221784
21
15.501164
31
-91.061584
0
LINE
8
0
10
-0.68221784
20
15.501164
30
-91.061584
11
-0.98845935
21
15.71114
31
-90.95173
0
LINE
8
0
10
-0.98845935
20
15.71114
30
-90.95173
11
-1.3030813
21
15.917686
31
-90.84759
0
LINE
8
0
10
-1.3030813
20
15.917686
30
-90.84759
11
-1.6260816
21
16.120407
31
-90.74923
0
LINE
8
0
10
-1.6260816
20
16.120407
30
-90.74923
11
-1.9574723
21
16.318907
31
-90.65671
0
LINE
8
0
10
-1.9574723
20
16.318907
30
-90.65671
11
-2.2972147
21
16.51278
31
-90.57009
0
LINE
8
0
10
-2.2972147
20
16.51278
30
-90.57009
11
-2.6452878
21
16.701647
31
-90.48943
0
LINE
8
0
10
-2.6452878
20
16.701647
30
-90.48943
11
-3.0016155
21
16.885088
31
-90.41478
0
LINE
8
0
10
-3.0016155
20
16.885088
30
-90.41478
11
-3.3661332
21
17.062723
31
-90.34618
0
LINE
8
0
10
-3.3661332
20
17.062723
30
-90.34618
11
-3.7387445
21
17.234133
31
-90.28368
0
LINE
8
0
10
-3.7387445
20
17.234133
30
-90.28368
11
-4.119339
21
17.398926
31
-90.22732
0
LINE
8
0
10
-4.119339
20
17.398926
30
-90.22732
11
-4.507808
21
17.556723
31
-90.177124
0
LINE
8
0
10
-4.507808
20
17.556723
30
-90.177124
11
-4.9039626
21
17.7071
31
-90.13314
0
LINE
8
0
10
-4.9039626
20
17.7071
30
-90.13314
11
-5.307659
21
17.84969
31
-90.09538
0
LINE
8
0
10
-5.307659
20
17.84969
30
-90.09538
11
-5.7187085
21
17.984089
31
-90.06389
0
LINE
8
0
10
-5.7187085
20
17.984089
30
-90.06389
11
-6.1369114
21
18.109924
31
-90.038666
0
LINE
8
0
10
-6.1369114
20
18.109924
30
-90.038666
11
-6.5620737
21
18.226833
31
-90.01973
0
LINE
8
0
10
-6.5620737
20
18.226833
30
-90.01973
11
-6.993911
21
18.334427
31
-90.0071
0
LINE
8
0
10
-6.993911
20
18.334427
30
-90.0071
11
-7.4321957
21
18.432364
31
-90.00079
0
LINE
8
0
10
-7.4321957
20
18.432364
30
-90.00079
11
-7.8766513
21
18.520273
31
-90.00079
0
LINE
8
0
10
-7.8766513
20
18.520273
30
-90.00079
11
-8.326994
21
18.597822
31
-90.0071
0
LINE
8
0
10
-8.326994
20
18.597822
30
-90.0071
11
-8.782925
21
18.664686
31
-90.01973
0
LINE
8
0
10
-8.782925
20
18.664686
30
-90.01973
11
-9.24414
21
18.72053
31
-90.038666
0
LINE
8
0
10
-9.24414
20
18.72053
30
-90.038666
11
-9.710268
21
18.76505
31
-90.06389
0
LINE
8
0
10
-9.710268
20
18.76505
30
-90.06389
11
-10.180973
21
18.79794
31
-90.09538
0
LINE
8
0
10
-10.180973
20
18.79794
30
-90.09538
11
-10.655898
21
18.818914
31
-90.13314
0
LINE
8
0
10
-10.655898
20
18.818914
30
-90.13314
11
-11.134667
21
18.827711
31
-90.177124
0
LINE
8
0
10
-11.134667
20
18.827711
30
-90.177124
11
-11.616908
21
18.824055
31
-90.22732
0
LINE
8
0
10
-11.616908
20
18.824055
30
-90.22732
11
-12.102179
21
18.807718
31
-90.28368
0
LINE
8
0
10
-12.102179
20
18.807718
30
-90.28368
11
-12.5900755
21
18.778458
31
-90.34618
0
LINE
8
0
10
-12.5900755
20
18.778458
30
-90.34618
11
-13.080177
21
18.736061
31
-90.41478
0
LINE
8
0
10
-13.080177
20
18.736061
30
-90.41478
11
-13.572054
21
18.680344
31
-90.48943
0
LINE
8
0
10
-13.572054
20
18.680344
30
-90.48943
11
-14.065267
21
18.6111
31
-90.5701
0
LINE
8
0
10
-14.065267
20
18.6111
30
-90.5701
11
-14.559325
21
18.528196
31
-90.656715
0
LINE
8
0
10
-14.559325
20
18.528196
30
-90.656715
11
-15.053774
21
18.431461
31
-90.74923
0
LINE
8
0
10
-15.053774
20
18.431461
30
-90.74923
11
-15.548143
21
18.320778
31
-90.84759
0
LINE
8
0
10
-15.548143
20
18.320778
30
-90.84759
11
-16.041983
21
18.196033
31
-90.95174
0
LINE
8
0
10
-16.041983
20
18.196033
30
-90.95174
11
-16.534746
21
18.057142
31
-91.061584
0
LINE
8
0
10
-16.534746
20
18.057142
30
-91.061584
11
-17.025944
21
17.904037
31
-91.17708
0
LINE
8
0
10
-17.025944
20
17.904037
30
-91.17708
11
-17.51515
21
17.736645
31
-91.298164
0
LINE
8
0
10
-17.51515
20
17.736645
30
-91.298164
11
-18.001785
21
17.554947
31
-91.42473
0
LINE
8
0
10
-18.001785
20
17.554947
30
-91.42473
11
-18.485376
21
17.358934
31
-91.55672
0
LINE
8
0
10
-18.485376
20
17.358934
30
-91.55672
11
-18.965405
21
17.148603
31
-91.69404
0
LINE
8
0
10
-18.965405
20
17.148603
30
-91.69404
11
-19.441387
21
16.923973
31
-91.83661
0
LINE
8
0
10
-19.441387
20
16.923973
30
-91.83661
11
-19.912764
21
16.685112
31
-91.98433
0
LINE
8
0
10
-19.912764
20
16.685112
30
-91.98433
11
-20.379047
21
16.432077
31
-92.137115
0
LINE
8
0
10
-20.379047
20
16.432077
30
-92.137115
11
-20.839733
21
16.164963
31
-92.29487
0
LINE
8
0
10
-20.839733
20
16.164963
30
-92.29487
11
-21.294304
21
15.883865
31
-92.45748
0
LINE
8
0
10
-21.294304
20
15.883865
30
-92.45748
11
-21.742285
21
15.588905
31
-92.62488
0
LINE
8
0
10
-21.742285
20
15.588905
30
-92.62488
11
-22.183117
21
15.280256
31
-92.79691
0
LINE
8
0
10
-22.183117
20
15.280256
30
-92.79691
11
-22.616331
21
14.958073
31
-92.973495
0
LINE
8
0
10
-22.616331
20
14.958073
30
-92.973495
11
-23.041441
21
14.62255
31
-93.154526
0
LINE
8
0
10
-23.041441
20
14.62255
30
-93.154526
11
-23.457947
21
14.273884
31
-93.339874
0
LINE
8
0
10
-23.457947
20
14.273884
30
-93.339874
11
-23.865396
21
13.912295
31
-93.52945
0
LINE
8
0
10
-23.865396
20
13.912295
30
-93.52945
11
-24.26327
21
13.538056
31
-93.72309
0
LINE
8
0
10
-24.26327
20
13.538056
30
-93.72309
11
-24.65113
21
13.151422
31
-93.92069
0
LINE
8
0
10
-24.65113
20
13.151422
30
-93.92069
11
-25.028524
21
12.752675
31
-94.12215
0
LINE
8
0
10
-25.028524
20
12.752675
30
-94.12215
11
-25.39501
21
12.342092
31
-94.32732
0
LINE
8
0
10
-25.39501
20
12.342092
30
-94.32732
11
-25.750134
21
11.920041
31
-94.536064
0
LINE
8
0
10
-25.750134
20
11.920041
30
-94.536064
11
-26.093464
21
11.486858
31
-94.748245
0
LINE
8
0
10
-26.093464
20
11.486858
30
-94.748245
11
-26.424639
21
11.042829
31
-94.96377
0
LINE
8
0
10
-26.424639
20
11.042829
30
-94.96377
11
-26.743221
21
10.588394
31
-95.182465
0
LINE
8
0
10
-26.743221
20
10.588394
30
-95.182465
11
-27.048836
21
10.123919
31
-95.4042
0
LINE
8
0
10
-27.048836
20
10.123919
30
-95.4042
11
-27.341108
21
9.649799
31
-95.62883
0
LINE
8
0
10
-27.341108
20
9.649799
30
-95.62883
11
-27.619707
21
9.166434
31
-95.85625
0
LINE
8
0
10
-27.619707
20
9.166434
30
-95.85625
11
-27.884258
21
8.6743
31
-96.08626
0
LINE
8
0
10
-27.884258
20
8.6743
30
-96.08626
11
-28.13446
21
8.173819
31
-96.318756
0
LINE
8
0
10
-28.13446
20
8.173819
30
-96.318756
11
-28.369995
21
7.6654453
31
-96.553566
0
LINE
8
0
10
-28.369995
20
7.6654453
30
-96.553566
11
-28.59058
21
7.1496506
31
-96.79056
0
LINE
8
0
10
-28.59058
20
7.1496506
30
-96.79056
11
-28.795952
21
6.626889
31
-97.02959
0
LINE
8
0
10
-28.795952
20
6.626889
30
-97.02959
11
-28.985836
21
6.0977035
31
-97.27048
0
LINE
8
0
10
-28.985836
20
6.0977035
30
-97.27048
11
-29.160013
21
5.562572
31
-97.51311
0
LINE
8
0
10
-29.160013
20
5.562572
30
-97.51311
11
-29.318264
21
5.022003
31
-97.757286
0
LINE
8
0
10
-29.318264
20
5.022003
30
-97.757286
11
-29.460394
21
4.4764895
31
-98.00291
0
LINE
8
0
10
-29.460394
20
4.4764895
30
-98.00291
11
-29.586216
21
3.9266124
31
-98.24977
0
LINE
8
0
10
-29.586216
20
3.9266124
30
-98.24977
11
-29.695583
21
3.3728793
31
-98.49774
0
LINE
8
0
10
-29.695583
20
3.3728793
30
-98.49774
11
-29.788357
21
2.8158293
31
-98.74667
0
LINE
8
0
10
-29.788357
20
2.8158293
30
-98.74667
11
-29.864422
21
2.2560067
31
-98.99638
0
LINE
8
0
10
-29.864422
20
2.2560067
30
-98.99638
11
-29.923683
21
1.6939331
31
-99.24674
0
LINE
8
0
10
-29.923683
20
1.6939331
30
-99.24674
11
-29.966064
21
1.1302178
31
-99.49756
0
LINE
8
0
10
-29.966064
20
1.1302178
30
-99.49756
11
-29.991514
21
0.5653875
31
-99.748695
0
LINE
8
0
10
-29.991514
20
0.5653875
30
-99.748695
11
-30.0
21
-7.154928E-7
31
-100.0
0
LINE
8
0
10
-30.0
20
-7.154928E-7
30
-100.0
11
-29.991514
21
-0.5653889
31
-100.2513
0
LINE
8
0
10
-29.991514
20
-0.5653889
30
-100.2513
11
-29.966064
21
-1.1302192
31
-100.50243
0
LINE
8
0
10
-29.966064
20
-1.1302192
30
-100.50243
11
-29.923683
21
-1.693963
31
-100.75327
0
LINE
8
0
10
-29.923683
20
-1.693963
30
-100.75327
11
-29.864422
21
-2.2560084
31
-101.00362
0
LINE
8
0
10
-29.864422
20
-2.2560084
30
-101.00362
11
-29.788353
21
-2.8158305
31
-101.253334
0
LINE
8
0
10
-29.788353
20
-2.8158305
30
-101.253334
11
-29.695583
21
-3.3728805
31
-101.50225
0
LINE
8
0
10
-29.695583
20
-3.3728805
30
-101.50225
11
-29.58621
21
-3.926642
31
-101.750244
0
LINE
8
0
10
-29.58621
20
-3.926642
30
-101.750244
11
-29.460388
21
-4.4765186
31
-101.99711
0
LINE
8
0
10
-29.460388
20
-4.4765186
30
-101.99711
11
-29.31826
21
-5.022004
31
-102.24271
0
LINE
8
0
10
-29.31826
20
-5.022004
30
-102.24271
11
-29.160013
21
-5.562573
31
-102.4869
0
LINE
8
0
10
-29.160013
20
-5.562573
30
-102.4869
11
-28.98584
21
-6.0977054
31
-102.729515
0
LINE
8
0
10
-28.98584
20
-6.0977054
30
-102.729515
11
-28.79594
21
-6.6269164
31
-102.97043
0
LINE
8
0
10
-28.79594
20
-6.6269164
30
-102.97043
11
-28.590576
21
-7.1496515
31
-103.20944
0
LINE
8
0
10
-28.590576
20
-7.1496515
30
-103.20944
11
-28.369995
21
-7.6654463
31
-103.44643
0
LINE
8
0
10
-28.369995
20
-7.6654463
30
-103.44643
11
-28.134457
21
-8.17382
31
-103.68125
0
LINE
8
0
10
-28.134457
20
-8.17382
30
-103.68125
11
-27.884258
21
-8.674301
31
-103.913734
0
LINE
8
0
10
-27.884258
20
-8.674301
30
-103.913734
11
-27.61969
21
-9.16646
31
-104.14377
0
LINE
8
0
10
-27.61969
20
-9.16646
30
-104.14377
11
-27.34111
21
-9.649801
31
-104.37116
0
LINE
8
0
10
-27.34111
20
-9.649801
30
-104.37116
11
-27.048836
21
-10.1239195
31
-104.5958
0
LINE
8
0
10
-27.048836
20
-10.1239195
30
-104.5958
11
-26.743238
21
-10.588373
31
-104.81753
0
LINE
8
0
10
-26.743238
20
-10.588373
30
-104.81753
11
-26.424627
21
-11.042853
31
-105.03624
0
LINE
8
0
10
-26.424627
20
-11.042853
30
-105.03624
11
-26.09346
21
-11.486856
31
-105.251755
0
LINE
8
0
10
-26.09346
20
-11.486856
30
-105.251755
11
-25.750132
21
-11.920042
31
-105.46394
0
LINE
8
0
10
-25.750132
20
-11.920042
30
-105.46394
11
-25.395012
21
-12.342094
31
-105.67268
0
LINE
8
0
10
-25.395012
20
-12.342094
30
-105.67268
11
-25.028542
21
-12.752655
31
-105.87784
0
LINE
8
0
10
-25.028542
20
-12.752655
30
-105.87784
11
-24.65113
21
-13.1514225
31
-106.0793
0
LINE
8
0
10
-24.65113
20
-13.1514225
30
-106.0793
11
-24.263271
21
-13.538059
31
-106.27691
0
LINE
8
0
10
-24.263271
20
-13.538059
30
-106.27691
11
-23.865395
21
-13.9122925
31
-106.47056
0
LINE
8
0
10
-23.865395
20
-13.9122925
30
-106.47056
11
-23.457966
21
-14.273868
31
-106.66011
0
LINE
8
0
10
-23.457966
20
-14.273868
30
-106.66011
11
-23.041462
21
-14.622535
31
-106.84546
0
LINE
8
0
10
-23.041462
20
-14.622535
30
-106.84546
11
-22.616331
21
-14.9580765
31
-107.0265
0
LINE
8
0
10
-22.616331
20
-14.9580765
30
-107.0265
11
-22.183115
21
-15.280257
31
-107.20309
0
LINE
8
0
10
-22.183115
20
-15.280257
30
-107.20309
11
-21.742277
21
-15.588903
31
-107.37513
0
LINE
8
0
10
-21.742277
20
-15.588903
30
-107.37513
11
-21.294325
21
-15.883851
31
-107.54251
0
LINE
8
0
10
-21.294325
20
-15.883851
30
-107.54251
11
-20.83973
21
-16.16496
31
-107.70514
0
LINE
8
0
10
-20.83973
20
-16.16496
30
-107.70514
11
-20.379047
21
-16.43208
31
-107.862885
0
LINE
8
0
10
-20.379047
20
-16.43208
30
-107.862885
11
-19.912766
21
-16.685116
31
-108.01567
0
LINE
8
0
10
-19.912766
20
-16.685116
30
-108.01567
11
-19.441383
21
-16.923971
31
-108.16339
0
LINE
8
0
10
-19.441383
20
-16.923971
30
-108.16339
11
-18.965427
21
-17.148592
31
-108.305954
0
LINE
8
0
10
-18.965427
20
-17.148592
30
-108.305954
11
-18.48537
21
-17.35893
31
-108.44328
0
LINE
8
0
10
-18.48537
20
-17.35893
30
-108.44328
11
-18.001785
21
-17.554949
31
-108.57527
0
LINE
8
0
10
-18.001785
20
-17.554949
30
-108.57527
11
-17.515152
21
-17.736647
31
-108.701836
0
LINE
8
0
10
-17.515152
20
-17.736647
30
-108.701836
11
-17.025965
21
-17.90403
31
-108.822914
0
LINE
8
0
10
-17.025965
20
-17.90403
30
-108.822914
11
-16.534723
21
-18.057154
31
-108.938416
0
LINE
8
0
10
-16.534723
20
-18.057154
30
-108.938416
11
-16.041954
21
-18.196041
31
-109.04827
0
LINE
8
0
10
-16.041954
20
-18.196041
30
-109.04827
11
-15.548143
21
-18.320782
31
-109.15241
0
LINE
8
0
10
-15.548143
20
-18.320782
30
-109.15241
11
-15.053774
21
-18.431463
31
-109.25077
0
LINE
8
0
10
-15.053774
20
-18.431463
30
-109.25077
11
-14.559321
21
-18.528193
31
-109.34329
0
LINE
8
0
10
-14.559321
20
-18.528193
30
-109.34329
11
-14.065243
21
-18.611109
31
-109.42991
0
LINE
8
0
10
-14.065243
20
-18.611109
30
-109.42991
11
-13.57205
21
-18.68034
31
-109.51057
0
LINE
8
0
10
-13.57205
20
-18.68034
30
-109.51057
11
-13.080177
21
-18.736065
31
-109.58522
0
LINE
8
0
10
-13.080177
20
-18.736065
30
-109.58522
11
-12.5900755
21
-18.77846
31
-109.65382
0
LINE
8
0
10
-12.5900755
20
-18.77846
30
-109.65382
11
-12.102174
21
-18.807714
31
-109.71632
0
LINE
8
0
10
-12.102174
20
-18.807714
30
-109.71632
11
-11.616886
21
-18.82406
31
-109.77268
0
LINE
8
0
10
-11.616886
20
-18.82406
30
-109.77268
11
-11.134663
21
-18.827707
31
-109.822876
0
LINE
8
0
10
-11.134663
20
-18.827707
30
-109.822876
11
-10.655898
21
-18.818916
31
-109.86686
0
LINE
8
0
10
-10.655898
20
-18.818916
30
-109.86686
11
-10.180973
21
-18.79794
31
-109.90462
0
LINE
8
0
10
-10.180973
20
-18.79794
30
-109.90462
11
-9.710241
21
-18.765045
31
-109.93611
0
LINE
8
0
10
-9.710241
20
-18.765045
30
-109.93611
11
-9.244118
21
-18.72053
31
-109.961334
0
LINE
8
0
10
-9.244118
20
-18.72053
30
-109.961334
11
-8.782922
21
-18.66468
31
-109.98027
0
LINE
8
0
10
-8.782922
20
-18.66468
30
-109.98027
11
-8.326994
21
-18.597824
31
-109.9929
0
LINE
8
0
10
-8.326994
20
-18.597824
30
-109.9929
11
-7.8766727
21
-18.520277
31
-109.99921
0
LINE
8
0
10
-7.8766727
20
-18.520277
30
-109.99921
11
-7.432171
21
-18.432354
31
-109.99921
0
LINE
8
0
10
-7.432171
20
-18.432354
30
-109.99921
11
-6.9939113
21
-18.33443
31
-109.9929
0
LINE
8
0
10
-6.9939113
20
-18.33443
30
-109.9929
11
-6.5620737
21
-18.226835
31
-109.98027
0
LINE
8
0
10
-6.5620737
20
-18.226835
30
-109.98027
11
-6.1369324
21
-18.10993
31
-109.961334
0
LINE
8
0
10
-6.1369324
20
-18.10993
30
-109.961334
11
-5.718728
21
-17.984095
31
-109.93611
0
LINE
8
0
10
-5.718728
20
-17.984095
30
-109.93611
11
-5.307656
21
-17.849682
31
-109.90462
0
LINE
8
0
10
-5.307656
20
-17.849682
30
-109.90462
11
-4.903962
21
-17.707102
31
-109.86686
0
LINE
8
0
10
-4.903962
20
-17.707102
30
-109.86686
11
-4.507808
21
-17.556725
31
-109.822876
0
LINE
8
0
10
-4.507808
20
-17.556725
30
-109.822876
11
-4.1193576
21
-17.398933
31
-109.77268
0
LINE
8
0
10
-4.1193576
20
-17.398933
30
-109.77268
11
-3.7387443
21
-17.234135
31
-109.71632
0
LINE
8
0
10
-3.7387443
20
-17.234135
30
-109.71632
11
-3.3661313
21
-17.062717
31
-109.65382
0
LINE
8
0
10
-3.3661313
20
-17.062717
30
-109.65382
11
-3.001615
21
-16.88509
31
-109.58522
0
LINE
8
0
10
-3.001615
20
-16.88509
30
-109.58522
11
-2.6452875
21
-16.701649
31
-109.51057
0
LINE
8
0
10
-2.6452875
20
-16.701649
30
-109.51057
11
-2.2972221
21
-16.512781
31
-109.42991
0
LINE
8
0
10
-2.2972221
20
-16.512781
30
-109.42991
11
-1.9574629
21
-16.318901
31
-109.34329
0
LINE
8
0
10
-1.9574629
20
-16.318901
30
-109.34329
11
-1.6260804
21
-16.1204
31
-109.25077
0
LINE
8
0
10
-1.6260804
20
-16.1204
30
-109.25077
11
-1.3030806
21
-15.917688
31
-109.15241
0
LINE
8
0
10
-1.3030806
20
-15.917688
30
-109.15241
11
-0.98846674
21
-15.71115
31
-109.04827
0
LINE
8
0
10
-0.98846674
20
-15.71115
30
-109.04827
11
-0.68222463
21
-15.501166
31
-108.938416
0
LINE
8
0
10
-0.68222463
20
-15.501166
30
-108.938416
11
-0.3843094
21
-15.288132
31
-108.822914
0
LINE
8
0
10
-0.3843094
20
-15.288132
30
-108.822914
11
-0.09470275
21
-15.072426
31
-108.701836
0
LINE
8
0
10
-0.09470275
20
-15.072426
30
-108.701836
11
0.18667474
21
-14.854433
31
-108.575264
0
LINE
8
0
10
0.18667474
20
-14.854433
30
-108.575264
11
0.45990404
21
-14.634514
31
-108.44328
0
LINE
8
0
10
0.45990404
20
-14.634514
30
-108.44328
11
0.7250948
21
-14.41301
31
-108.305954
0
LINE
8
0
10
0.7250948
20
-14.41301
30
-108.305954
11
0.98233294
21
-14.190311
31
-108.16339
0
LINE
8
0
10
0.98233294
20
-14.190311
30
-108.16339
11
1.2317587
21
-13.966736
31
-108.01567
0
LINE
8
0
10
1.2317587
20
-13.966736
30
-108.01567
11
1.473515
21
-13.742633
31
-107.862885
0
LINE
8
0
10
1.473515
20
-13.742633
30
-107.862885
11
1.7077578
21
-13.518322
31
-107.70514
0
LINE
8
0
10
1.7077578
20
-13.518322
30
-107.70514
11
1.9346676
21
-13.294101
31
-107.54251
0
LINE
8
0
10
1.9346676
20
-13.294101
30
-107.54251
11
2.1544054
21
-13.070303
31
-107.37513
0
LINE
8
0
10
2.1544054
20
-13.070303
30
-107.37513
11
2.367177
21
-12.847199
31
-107.20309
0
LINE
8
0
10
2.367177
20
-12.847199
30
-107.20309
11
2.5731916
21
-12.625083
31
-107.0265
0
LINE
8
0
10
2.5731916
20
-12.625083
30
-107.0265
11
2.7726765
21
-12.404198
31
-106.84546
0
LINE
8
0
10
2.7726765
20
-12.404198
30
-106.84546
11
2.9658425
21
-12.184828
31
-106.66011
0
LINE
8
0
10
2.9658425
20
-12.184828
30
-106.66011
11
3.1529388
21
-11.967197
31
-106.47056
0
LINE
8
0
10
3.1529388
20
-11.967197
30
-106.47056
11
3.3342123
21
-11.751527
31
-106.27691
0
LINE
8
0
10
3.3342123
20
-11.751527
30
-106.27691
11
3.5099244
21
-11.538039
31
-106.0793
0
LINE
8
0
10
3.5099244
20
-11.538039
30
-106.0793
11
3.6803463
21
-11.32691
31
-105.87784
0
LINE
8
0
10
3.6803463
20
-11.32691
30
-105.87784
11
3.845736
21
-11.118353
31
-105.67268
0
LINE
8
0
10
3.845736
20
-11.118353
30
-105.67268
11
4.0063815
21
-10.912514
31
-105.46394
0
LINE
8
0
10
4.0063815
20
-10.912514
30
-105.46394
11
4.1625586
21
-10.709558
31
-105.251755
0
LINE
8
0
10
4.1625586
20
-10.709558
30
-105.251755
11
4.314574
21
-10.509594
31
-105.03624
0
LINE
8
0
10
4.314574
20
-10.509594
30
-105.03624
11
4.46273
21
-10.312737
31
-104.81753
0
LINE
8
0
10
4.46273
20
-10.312737
30
-104.81753
11
4.6072884
21
-10.119139
31
-104.5958
0
LINE
8
0
10
4.6072884
20
-10.119139
30
-104.5958
11
4.748579
21
-9.9288435
31
-104.37116
0
LINE
8
0
10
4.748579
20
-9.9288435
30
-104.37116
11
4.8868976
21
-9.741932
31
-104.14377
0
LINE
8
0
10
4.8868976
20
-9.741932
30
-104.14377
11
5.0225544
21
-9.558445
31
-103.913734
0
LINE
8
0
10
5.0225544
20
-9.558445
30
-103.913734
11
5.155841
21
-9.378442
31
-103.68125
0
LINE
8
0
10
5.155841
20
-9.378442
30
-103.68125
11
5.2870674
21
-9.201929
31
-103.44643
0
LINE
8
0
10
5.2870674
20
-9.201929
30
-103.44643
11
5.416539
21
-9.028917
31
-103.20944
0
LINE
8
0
10
5.416539
20
-9.028917
30
-103.20944
11
5.5445566
21
-8.859388
31
-102.97043
0
LINE
8
0
10
5.5445566
20
-8.859388
30
-102.97043
11
5.6714225
21
-8.693308
31
-102.729515
0
LINE
8
0
10
5.6714225
20
-8.693308
30
-102.729515
11
5.7974224
21
-8.530649
31
-102.4869
0
LINE
8
0
10
5.7974224
20
-8.530649
30
-102.4869
11
5.922851
21
-8.371341
31
-102.24271
0
LINE
8
0
10
5.922851
20
-8.371341
30
-102.24271
11
6.0479956
21
-8.215311
31
-101.99711
0
LINE
8
0
10
6.0479956
20
-8.215311
30
-101.99711
11
6.173138
21
-8.062468
31
-101.750244
0
LINE
8
0
10
6.173138
20
-8.062468
30
-101.750244
11
6.2985544
21
-7.912695
31
-101.50225
0
LINE
8
0
10
6.2985544
20
-7.912695
30
-101.50225
11
6.424503
21
-7.7658896
31
-101.253334
0
LINE
8
0
10
6.424503
20
-7.7658896
30
-101.253334
11
6.551247
21
-7.62191
31
-101.00362
0
LINE
8
0
10
6.551247
20
-7.62191
30
-101.00362
11
6.679038
21
-7.480607
31
-100.75327
0
LINE
8
0
10
6.679038
20
-7.480607
30
-100.75327
11
6.8081245
21
-7.341812
31
-100.50243
0
LINE
8
0
10
6.8081245
20
-7.341812
30
-100.50243
11
6.938725
21
-7.2053633
31
-100.2513
0
LINE
8
0
10
6.938725
20
-7.2053633
30
-100.2513
11
7.0710683
21
-7.071068
31
-100.0
0
LINE
8
0
10
7.0710683
20
-7.071068
30
-100.0
11
7.2053633
21
-6.9387245
31
-99.748695
0
LINE
8
0
10
7.2053633
20
-6.9387245
30
-99.748695
11
7.341812
21
-6.808124
31
-99.49756
0
LINE
8
0
10
7.341812
20
-6.808124
30
-99.49756
11
7.480609
21
-6.6790385
31
-99.24672
0
LINE
8
0
10
7.480609
20
-6.6790385
30
-99.24672
11
7.62191
21
-6.5512466
31
-98.996376
0
LINE
8
0
10
7.62191
20
-6.5512466
30
-98.996376
11
7.7658896
21
-6.4245014
31
-98.74667
0
LINE
8
0
10
7.7658896
20
-6.4245014
30
-98.74667
11
7.912695
21
-6.2985544
31
-98.49774
0
LINE
8
0
10
7.912695
20
-6.2985544
30
-98.49774
11
8.062466
21
-6.1731358
31
-98.24976
0
LINE
8
0
10
8.062466
20
-6.1731358
30
-98.24976
11
8.215312
21
-6.047997
31
-98.00289
0
LINE
8
0
10
8.215312
20
-6.047997
30
-98.00289
11
8.371343
21
-5.922851
31
-97.757286
0
LINE
8
0
10
8.371343
20
-5.922851
30
-97.757286
11
8.530648
21
-5.7974215
31
-97.5131
0
LINE
8
0
10
8.530648
20
-5.7974215
30
-97.5131
11
8.69331
21
-5.671424
31
-97.27048
0
LINE
8
0
10
8.69331
20
-5.671424
30
-97.27048
11
8.85939
21
-5.544557
31
-97.02957
0
LINE
8
0
10
8.85939
20
-5.544557
30
-97.02957
11
9.028915
21
-5.4165382
31
-96.790565
0
LINE
8
0
10
9.028915
20
-5.4165382
30
-96.790565
11
9.201931
21
-5.287068
31
-96.553566
0
LINE
8
0
10
9.201931
20
-5.287068
30
-96.553566
11
9.378444
21
-5.155841
31
-96.31875
0
LINE
8
0
10
9.378444
20
-5.155841
30
-96.31875
11
9.558444
21
-5.0225525
31
-96.08627
0
LINE
8
0
10
9.558444
20
-5.0225525
30
-96.08627
11
9.741935
21
-4.886898
31
-95.85623
0
LINE
8
0
10
9.741935
20
-4.886898
30
-95.85623
11
9.928842
21
-4.748577
31
-95.628845
0
LINE
8
0
10
9.928842
20
-4.748577
30
-95.628845
11
10.119142
21
-4.6072884
31
-95.4042
0
LINE
8
0
10
10.119142
20
-4.6072884
30
-95.4042
11
10.312738
21
-4.46273
31
-95.18247
0
LINE
8
0
10
10.312738
20
-4.46273
30
-95.18247
11
10.509595
21
-4.3145733
31
-94.96376
0
LINE
8
0
10
10.509595
20
-4.3145733
30
-94.96376
11
10.70956
21
-4.1625586
31
-94.74824
0
LINE
8
0
10
10.70956
20
-4.1625586
30
-94.74824
11
10.912518
21
-4.0063815
31
-94.53606
0
LINE
8
0
10
10.912518
20
-4.0063815
30
-94.53606
11
11.11835
21
-3.845735
31
-94.327324
0
LINE
8
0
10
11.11835
20
-3.845735
30
-94.327324
11
11.326914
21
-3.6803465
31
-94.122154
0
LINE
8
0
10
11.326914
20
-3.6803465
30
-94.122154
11
11.538036
21
-3.5099225
31
-93.9207
0
LINE
8
0
10
11.538036
20
-3.5099225
30
-93.9207
11
11.751529
21
-3.3342123
31
-93.72309
0
LINE
8
0
10
11.751529
20
-3.3342123
30
-93.72309
11
11.9672
21
-3.1529388
31
-93.52944
0
LINE
8
0
10
11.9672
20
-3.1529388
30
-93.52944
11
12.184824
21
-2.9658408
31
-93.33989
0
LINE
8
0
10
12.184824
20
-2.9658408
30
-93.33989
11
12.4042
21
-2.772676
31
-93.15453
0
LINE
8
0
10
12.4042
20
-2.772676
30
-93.15453
11
12.625079
21
-2.57319
31
-92.9735
0
LINE
8
0
10
12.625079
20
-2.57319
30
-92.9735
11
12.847203
21
-2.3671768
31
-92.79691
0
LINE
8
0
10
12.847203
20
-2.3671768
30
-92.79691
11
13.070307
21
-2.1544054
31
-92.62487
0
LINE
8
0
10
13.070307
20
-2.1544054
30
-92.62487
11
13.294097
21
-1.9346664
31
-92.4575
0
LINE
8
0
10
13.294097
20
-1.9346664
30
-92.4575
11
13.518324
21
-1.7077575
31
-92.29486
0
LINE
8
0
10
13.518324
20
-1.7077575
30
-92.29486
11
13.742628
21
-1.4735137
31
-92.137115
0
LINE
8
0
10
13.742628
20
-1.4735137
30
-92.137115
11
13.96674
21
-1.2317581
31
-91.98433
0
LINE
8
0
10
13.96674
20
-1.2317581
30
-91.98433
11
14.190315
21
-0.98233235
31
-91.83661
0
LINE
8
0
10
14.190315
20
-0.98233235
30
-91.83661
11
14.413005
21
-0.7250938
31
-91.694046
0
LINE
8
0
10
14.413005
20
-0.7250938
30
-91.694046
11
14.634516
21
-0.45990324
31
-91.55672
0
LINE
8
0
10
14.634516
20
-0.45990324
30
-91.55672
11
14.854429
21
-0.18667379
31
-91.424736
0
LINE
8
0
10
14.854429
20
-0.18667379
30
-91.424736
11
15.07243
21
0.09470367
31
-91.298164
0
LINE
8
0
10
15.07243
20
0.09470367
30
-91.298164
11
15.288135
21
0.38431036
31
-91.177086
0
LINE
8
0
10
15.288135
20
0.38431036
30
-91.177086
11
15.501169
21
0.6822257
31
-91.061584
0
LINE
8
0
10
15.501169
20
0.6822257
30
-91.061584
11
15.711154
21
0.9884679
31
-90.95172
0
LINE
8
0
10
15.711154
20
0.9884679
30
-90.95172
11
15.917684
21
1.3030813
31
-90.84759
0
LINE
8
0
10
15.917684
20
1.3030813
30
-90.84759
11
16.120403
21
1.6260816
31
-90.74923
0
LINE
8
0
10
16.120403
20
1.6260816
30
-90.74923
11
16.318905
21
1.9574643
31
-90.65671
0
LINE
8
0
10
16.318905
20
1.9574643
30
-90.65671
11
16.512787
21
2.2972238
31
-90.57009
0
LINE
8
0
10
16.512787
20
2.2972238
30
-90.57009
11
16.701653
21
2.645289
31
-90.48943
0
LINE
8
0
10
16.701653
20
2.645289
30
-90.48943
11
16.885084
21
3.001615
31
-90.41478
0
LINE
8
0
10
16.885084
20
3.001615
30
-90.41478
11
17.06272
21
3.366133
31
-90.34618
0
LINE
8
0
10
17.06272
20
3.366133
30
-90.34618
11
17.234138
21
3.7387462
31
-90.28368
0
LINE
8
0
10
17.234138
20
3.7387462
30
-90.28368
11
17.398937
21
4.119359
31
-90.22732
0
LINE
8
0
10
17.398937
20
4.119359
30
-90.22732
11
17.556728
21
4.5078106
31
-90.177124
0
LINE
8
0
10
17.556728
20
4.5078106
30
-90.177124
11
17.707096
21
4.9039617
31
-90.13314
0
LINE
8
0
10
17.707096
20
4.9039617
30
-90.13314
11
17.849686
21
5.307658
31
-90.09538
0
LINE
8
0
10
17.849686
20
5.307658
30
-90.09538
11
17.984089
21
5.7187276
31
-90.06389
0
LINE
8
0
10
17.984089
20
5.7187276
30
-90.06389
11
18.109934
21
6.1369343
31
-90.038666
0
LINE
8
0
10
18.109934
20
6.1369343
30
-90.038666
11
18.226841
21
6.5620766
31
-90.01973
0
LINE
8
0
10
18.226841
20
6.5620766
30
-90.01973
11
18.334425
21
6.99391
31
-90.0071
0
LINE
8
0
10
18.334425
20
6.99391
30
-90.0071
11
18.43235
21
7.4321704
31
-90.00079
0
LINE
8
0
10
18.43235
20
7.4321704
30
-90.00079
11
18.520271
21
7.8766723
31
-90.00079
0
LINE
8
0
10
18.520271
20
7.8766723
30
-90.00079
11
18.59782
21
8.326994
31
-90.0071
0
LINE
8
0
10
18.59782
20
8.326994
30
-90.0071
11
18.664686
21
8.782925
31
-90.01973
0
LINE
8
0
10
18.664686
20
8.782925
30
-90.01973
11
18.720535
21
9.244122
31
-90.038666
0
LINE
8
0
10
18.720535
20
9.244122
30
-90.038666
11
18.765041
21
9.71024
31
-90.06389
0
LINE
8
0
10
18.765041
20
9.71024
30
-90.06389
11
18.797945
21
10.180977
31
-90.09538
0
LINE
8
0
10
18.797945
20
10.180977
30
-90.09538
11
18.81891
21
10.655897
31
-90.13314
0
LINE
8
0
10
18.81891
20
10.655897
30
-90.13314
11
18.82771
21
11.134666
31
-90.177124
0
LINE
8
0
10
18.82771
20
11.134666
30
-90.177124
11
18.824064
21
11.616889
31
-90.22732
0
LINE
8
0
10
18.824064
20
11.616889
30
-90.22732
11
18.807718
21
12.102177
31
-90.28368
0
LINE
8
0
10
18.807718
20
12.102177
30
-90.28368
11
18.778461
21
12.590079
31
-90.34618
0
LINE
8
0
10
18.778461
20
12.590079
30
-90.34618
11
18.73606
21
13.080176
31
-90.41478
0
LINE
8
0
10
18.73606
20
13.080176
30
-90.41478
11
18.68034
21
13.572052
31
-90.48943
0
LINE
8
0
10
18.68034
20
13.572052
30
-90.48943
11
18.61111
21
14.065248
31
-90.5701
0
LINE
8
0
10
18.61111
20
14.065248
30
-90.5701
11
18.528193
21
14.559322
31
-90.65671
0
LINE
8
0
10
18.528193
20
14.559322
30
-90.65671
11
18.431467
21
15.053778
31
-90.74923
0
LINE
8
0
10
18.431467
20
15.053778
30
-90.74923
11
18.320776
21
15.548142
31
-90.84759
0
LINE
8
0
10
18.320776
20
15.548142
30
-90.84759
11
18.196041
21
16.041958
31
-90.95173
0
LINE
8
0
10
18.196041
20
16.041958
30
-90.95173
11
18.057154
21
16.534725
31
-91.061584
0
LINE
8
0
10
18.057154
20
16.534725
30
-91.061584
11
17.904032
21
17.02597
31
-91.17709
0
LINE
8
0
10
17.904032
20
17.02597
30
-91.17709
11
17.736649
21
17.515154
31
-91.298164
0
LINE
8
0
10
17.736649
20
17.515154
30
-91.298164
11
17.554943
21
18.001783
31
-91.42473
0
LINE
8
0
10
17.554943
20
18.001783
30
-91.42473
11
17.35893
21
18.485374
31
-91.55672
0
LINE
8
0
10
17.35893
20
18.485374
30
-91.55672
11
17.148588
21
18.965424
31
-91.69404
0
LINE
8
0
10
17.148588
20
18.965424
30
-91.69404
11
16.923971
21
19.441387
31
-91.83661
0
LINE
8
0
10
16.923971
20
19.441387
30
-91.83661
11
16.685116
21
19.912767
31
-91.98434
0
LINE
8
0
10
16.685116
20
19.912767
30
-91.98434
11
16.432077
21
20.379045
31
-92.137115
0
LINE
8
0
10
16.432077
20
20.379045
30
-92.137115
11
16.16496
21
20.839731
31
-92.29487
0
LINE
8
0
10
16.16496
20
20.839731
30
-92.29487
11
15.883847
21
21.294323
31
-92.45749
0
LINE
8
0
10
15.883847
20
21.294323
30
-92.45749
11
15.588902
21
21.742283
31
-92.62487
0
LINE
8
0
10
15.588902
20
21.742283
30
-92.62487
11
15.280258
21
22.183123
31
-92.79691
0
LINE
8
0
10
15.280258
20
22.183123
30
-92.79691
11
14.958072
21
22.61633
31
-92.973495
0
LINE
8
0
10
14.958072
20
22.61633
30
-92.973495
11
14.622534
21
23.041466
31
-93.15454
0
LINE
8
0
10
14.622534
20
23.041466
30
-93.15454
11
14.273865
21
23.457964
31
-93.33988
0
LINE
8
0
10
14.273865
20
23.457964
30
-93.33988
11
13.912294
21
23.865395
31
-93.52944
0
LINE
8
0
10
13.912294
20
23.865395
30
-93.52944
11
13.538059
21
24.263277
31
-93.72309
0
LINE
8
0
10
13.538059
20
24.263277
30
-93.72309
11
13.151421
21
24.65113
31
-93.92069
0
LINE
8
0
10
13.151421
20
24.65113
30
-93.92069
11
12.752656
21
25.028545
31
-94.12216
0
LINE
8
0
10
12.752656
20
25.028545
30
-94.12216
11
12.342091
21
25.39501
31
-94.32731
0
LINE
8
0
10
12.342091
20
25.39501
30
-94.32731
11
11.92004
21
25.750132
31
-94.536064
0
LINE
8
0
10
11.92004
20
25.750132
30
-94.536064
11
11.486856
21
26.093464
31
-94.748245
0
LINE
8
0
10
11.486856
20
26.093464
30
-94.748245
11
11.042852
21
26.424627
31
-94.96376
0
LINE
8
0
10
11.042852
20
26.424627
30
-94.96376
11
10.588371
21
26.74324
31
-95.18248
0
LINE
8
0
10
10.588371
20
26.74324
30
-95.18248
11
10.123919
21
27.048838
31
-95.404205
0
LINE
8
0
10
10.123919
20
27.048838
30
-95.404205
11
9.649799
21
27.341108
31
-95.62883
0
LINE
8
0
10
9.649799
20
27.341108
30
-95.62883
11
9.166459
21
27.619696
31
-95.85624
0
LINE
8
0
10
9.166459
20
27.619696
30
-95.85624
11
8.674299
21
27.884256
31
-96.08626
0
LINE
8
0
10
8.674299
20
27.884256
30
-96.08626
11
8.173818
21
28.134459
31
-96.318756
0
LINE
8
0
10
8.173818
20
28.134459
30
-96.318756
11
7.665446
21
28.369997
31
-96.55357
0
LINE
8
0
10
7.665446
20
28.369997
30
-96.55357
11
7.149649
21
28.590576
31
-96.79055
0
LINE
8
0
10
7.149649
20
28.590576
30
-96.79055
11
6.626915
21
28.79594
31
-97.02958
0
LINE
8
0
10
6.626915
20
28.79594
30
-97.02958
11
6.097703
21
28.985836
31
-97.27048
0
LINE
8
0
10
6.097703
20
28.985836
30
-97.27048
11
5.5625715
21
29.160013
31
-97.5131
0
LINE
8
0
10
5.5625715
20
29.160013
30
-97.5131
11
5.022003
21
29.318264
31
-97.75729
0
LINE
8
0
10
5.022003
20
29.318264
30
-97.75729
11
4.4765167
21
29.460384
31
-98.00289
0
LINE
8
0
10
4.4765167
20
29.460384
30
-98.00289
11
3.9266405
21
29.586212
31
-98.24976
0
LINE
8
0
10
3.9266405
20
29.586212
30
-98.24976
11
3.372879
21
29.695583
31
-98.49774
0
LINE
8
0
10
3.372879
20
29.695583
30
-98.49774
11
2.8158286
21
29.788357
31
-98.746666
0
LINE
8
0
10
2.8158286
20
29.788357
30
-98.746666
11
2.2560067
21
29.864422
31
-98.99638
0
LINE
8
0
10
2.2560067
20
29.864422
30
-98.99638
11
1.6939611
21
29.92368
31
-99.24672
0
LINE
8
0
10
1.6939611
20
29.92368
30
-99.24672
11
1.1302174
21
29.966066
31
-99.49757
0
LINE
8
0
10
1.1302174
20
29.966066
30
-99.49757
11
0.5653871
21
29.991512
31
-99.748695
0
LINE
8
0
10
0.5653871
20
29.991512
30
-99.748695
11
-1.0732392E-6
21
30.0
31
-100.0
0
LINE
8
0
10
-1.0732392E-6
20
30.0
30
-100.0
11
-0.5653893
21
29.991512
31
-100.251305
0
LINE
8
0
10
-0.5653893
20
29.991512
30
-100.251305
11
-1.1302196
21
29.966066
31
-100.50243
0
LINE
8
0
10
-1.1302196
20
29.966066
30
-100.50243
11
-1.6939634
21
29.92368
31
-100.75328
0
LINE
8
0
10
-1.6939634
20
29.92368
30
-100.75328
11
-2.2560086
21
29.864422
31
-101.00362
0
LINE
8
0
10
-2.2560086
20
29.864422
30
-101.00362
11
-2.8158307
21
29.788353
31
-101.253334
0
LINE
8
0
10
-2.8158307
20
29.788353
30
-101.253334
11
-3.3728812
21
29.695583
31
-101.50226
0
LINE
8
0
10
-3.3728812
20
29.695583
30
-101.50226
11
-3.9266424
21
29.586212
31
-101.75024
0
LINE
8
0
10
-3.9266424
20
29.586212
30
-101.75024
11
-4.476518
21
29.460384
31
-101.997116
0
LINE
8
0
10
-4.476518
20
29.460384
30
-101.997116
11
-5.022005
21
29.31826
31
-102.24271
0
LINE
8
0
10
-5.022005
20
29.31826
30
-102.24271
11
-5.5625734
21
29.160013
31
-102.4869
0
LINE
8
0
10
-5.5625734
20
29.160013
30
-102.4869
11
-6.097705
21
28.985836
31
-102.72952
0
LINE
8
0
10
-6.097705
20
28.985836
30
-102.72952
11
-6.6269164
21
28.79594
31
-102.97043
0
LINE
8
0
10
-6.6269164
20
28.79594
30
-102.97043
11
-7.149651
21
28.590574
31
-103.20945
0
LINE
8
0
10
-7.149651
20
28.590574
30
-103.20945
11
-7.6654477
21
28.369997
31
-103.44643
0
LINE
8
0
10
-7.6654477
20
28.369997
30
-103.44643
11
-8.17382
21
28.134459
31
-103.681244
0
LINE
8
0
10
-8.17382
20
28.134459
30
-103.681244
11
-8.674301
21
27.884256
31
-103.91374
0
LINE
8
0
10
-8.674301
20
27.884256
30
-103.91374
11
-9.166461
21
27.619694
31
-104.14377
0
LINE
8
0
10
-9.166461
20
27.619694
30
-104.14377
11
-9.6498
21
27.341106
31
-104.37117
0
LINE
8
0
10
-9.6498
20
27.341106
30
-104.37117
11
-10.1239195
21
27.048836
31
-104.595795
0
LINE
8
0
10
-10.1239195
20
27.048836
30
-104.595795
11
-10.588373
21
26.74324
31
-104.81752
0
LINE
8
0
10
-10.588373
20
26.74324
30
-104.81752
11
-11.042854
21
26.424627
31
-105.03624
0
LINE
8
0
10
-11.042854
20
26.424627
30
-105.03624
11
-11.486858
21
26.093462
31
-105.251755
0
LINE
8
0
10
-11.486858
20
26.093462
30
-105.251755
11
-11.920042
21
25.750132
31
-105.463936
0
LINE
8
0
10
-11.920042
20
25.750132
30
-105.463936
11
-12.3420925
21
25.395008
31
-105.67269
0
LINE
8
0
10
-12.3420925
20
25.395008
30
-105.67269
11
-12.752657
21
25.028542
31
-105.87784
0
LINE
8
0
10
-12.752657
20
25.028542
30
-105.87784
11
-13.151422
21
24.651127
31
-106.07931
0
LINE
8
0
10
-13.151422
20
24.651127
30
-106.07931
11
-13.53806
21
24.263275
31
-106.27691
0
LINE
8
0
10
-13.53806
20
24.263275
30
-106.27691
11
-13.912296
21
23.865395
31
-106.47056
0
LINE
8
0
10
-13.912296
20
23.865395
30
-106.47056
11
-14.273868
21
23.457962
31
-106.66012
0
LINE
8
0
10
-14.273868
20
23.457962
30
-106.66012
11
-14.622535
21
23.041462
31
-106.84546
0
LINE
8
0
10
-14.622535
20
23.041462
30
-106.84546
11
-14.958075
21
22.61633
31
-107.026505
0
LINE
8
0
10
-14.958075
20
22.61633
30
-107.026505
11
-15.280258
21
22.183117
31
-107.20309
0
LINE
8
0
10
-15.280258
20
22.183117
30
-107.20309
11
-15.588904
21
21.74228
31
-107.37513
0
LINE
8
0
10
-15.588904
20
21.74228
30
-107.37513
11
-15.883848
21
21.294323
31
-107.54251
0
LINE
8
0
10
-15.883848
20
21.294323
30
-107.54251
11
-16.164963
21
20.839731
31
-107.70513
0
LINE
8
0
10
-16.164963
20
20.839731
30
-107.70513
11
-16.432077
21
20.379044
31
-107.86289
0
LINE
8
0
10
-16.432077
20
20.379044
30
-107.86289
11
-16.685118
21
19.912766
31
-108.01566
0
LINE
8
0
10
-16.685118
20
19.912766
30
-108.01566
11
-16.923971
21
19.441383
31
-108.16339
0
LINE
8
0
10
-16.923971
20
19.441383
30
-108.16339
11
-17.148588
21
18.965424
31
-108.30596
0
LINE
8
0
10
-17.148588
20
18.965424
30
-108.30596
11
-17.358934
21
18.485373
31
-108.44328
0
LINE
8
0
10
-17.358934
20
18.485373
30
-108.44328
11
-17.554947
21
18.001781
31
-108.57527
0
LINE
8
0
10
-17.554947
20
18.001781
30
-108.57527
11
-17.736649
21
17.515154
31
-108.701836
0
LINE
8
0
10
-17.736649
20
17.515154
30
-108.701836
11
-17.904032
21
17.025967
31
-108.82291
0
LINE
8
0
10
-17.904032
20
17.025967
30
-108.82291
11
-18.057156
21
16.534723
31
-108.938416
0
LINE
8
0
10
-18.057156
20
16.534723
30
-108.938416
11
-18.196043
21
16.041956
31
-109.04827
0
LINE
8
0
10
-18.196043
20
16.041956
30
-109.04827
11
-18.320778
21
15.5481415
31
-109.15241
0
LINE
8
0
10
-18.320778
20
15.5481415
30
-109.15241
11
-18.431465
21
15.053776
31
-109.25077
0
LINE
8
0
10
-18.431465
20
15.053776
30
-109.25077
11
-18.528193
21
14.559321
31
-109.34329
0
LINE
8
0
10
-18.528193
20
14.559321
30
-109.34329
11
-18.611113
21
14.065247
31
-109.42991
0
LINE
8
0
10
-18.611113
20
14.065247
30
-109.42991
11
-18.680342
21
13.57205
31
-109.51057
0
LINE
8
0
10
-18.680342
20
13.57205
30
-109.51057
11
-18.73606
21
13.080175
31
-109.58522
0
LINE
8
0
10
-18.73606
20
13.080175
30
-109.58522
11
-18.778461
21
12.590078
31
-109.65382
0
LINE
8
0
10
-18.778461
20
12.590078
30
-109.65382
11
-18.807716
21
12.102175
31
-109.71632
0
LINE
8
0
10
-18.807716
20
12.102175
30
-109.71632
11
-18.824064
21
11.616887
31
-109.77268
0
LINE
8
0
10
-18.824064
20
11.616887
30
-109.77268
11
-18.827711
21
11.134665
31
-109.822876
0
LINE
8
0
10
-18.827711
20
11.134665
30
-109.822876
11
-18.818913
21
10.655895
31
-109.86686
0
LINE
8
0
10
-18.818913
20
10.655895
30
-109.86686
11
-18.797943
21
10.180974
31
-109.90462
0
LINE
8
0
10
-18.797943
20
10.180974
30
-109.90462
11
-18.765041
21
9.710238
31
-109.93611
0
LINE
8
0
10
-18.765041
20
9.710238
30
-109.93611
11
-18.720535
21
9.24412
31
-109.961334
0
LINE
8
0
10
-18.720535
20
9.24412
30
-109.961334
11
-18.664686
21
8.782923
31
-109.98027
0
LINE
8
0
10
-18.664686
20
8.782923
30
-109.98027
11
-18.59782
21
8.326992
31
-109.9929
0
LINE
8
0
10
-18.59782
20
8.326992
30
-109.9929
11
-18.520271
21
7.876671
31
-109.99921
0
LINE
8
0
10
-18.520271
20
7.876671
30
-109.99921
11
-18.432348
21
7.432169
31
-109.99921
0
LINE
8
0
10
-18.432348
20
7.432169
30
-109.99921
11
-18.334423
21
6.993909
31
-109.9929
0
LINE
8
0
10
-18.334423
20
6.993909
30
-109.9929
11
-18.226841
21
6.562075
31
-109.98027
0
LINE
8
0
10
-18.226841
20
6.562075
30
-109.98027
11
-18.109934
21
6.136933
31
-109.961334
0
LINE
8
0
10
-18.109934
20
6.136933
30
-109.961334
11
-17.984087
21
5.718726
31
-109.93611
0
LINE
8
0
10
-17.984087
20
5.718726
30
-109.93611
11
-17.849686
21
5.3076563
31
-109.90462
0
LINE
8
0
10
-17.849686
20
5.3076563
30
-109.90462
11
-17.707096
21
4.9039607
31
-109.86686
0
LINE
8
0
10
-17.707096
20
4.9039607
30
-109.86686
11
-17.556728
21
4.507809
31
-109.822876
0
LINE
8
0
10
-17.556728
20
4.507809
30
-109.822876
11
-17.398937
21
4.1193585
31
-109.77268
0
LINE
8
0
10
-17.398937
20
4.1193585
30
-109.77268
11
-17.234138
21
3.7387447
31
-109.71632
0
LINE
8
0
10
-17.234138
20
3.7387447
30
-109.71632
11
-17.06272
21
3.3661313
31
-109.65382
0
LINE
8
0
10
-17.06272
20
3.3661313
30
-109.65382
11
-16.885084
21
3.0016136
31
-109.58522
0
LINE
8
0
10
-16.885084
20
3.0016136
30
-109.58522
11
-16.701653
21
2.6452875
31
-109.51057
0
LINE
8
0
10
-16.701653
20
2.6452875
30
-109.51057
11
-16.512785
21
2.2972224
31
-109.42991
0
LINE
8
0
10
-16.512785
20
2.2972224
30
-109.42991
11
-16.318905
21
1.9574631
31
-109.34329
0
LINE
8
0
10
-16.318905
20
1.9574631
30
-109.34329
11
-16.120403
21
1.6260804
31
-109.25077
0
LINE
8
0
10
-16.120403
20
1.6260804
30
-109.25077
11
-15.917683
21
1.3030801
31
-109.15241
0
LINE
8
0
10
-15.917683
20
1.3030801
30
-109.15241
11
-15.711153
21
0.98846674
31
-109.04828
0
LINE
8
0
10
-15.711153
20
0.98846674
30
-109.04828
11
-15.501169
21
0.6822245
31
-108.938416
0
LINE
8
0
10
-15.501169
20
0.6822245
30
-108.938416
11
-15.288134
21
0.3843093
31
-108.822914
0
LINE
8
0
10
-15.288134
20
0.3843093
30
-108.822914
11
-15.072428
21
0.09470259
31
-108.701836
0
LINE
8
0
10
-15.072428
20
0.09470259
30
-108.701836
11
-14.854426
21
-0.18667483
31
-108.575264
0
LINE
8
0
10
-14.854426
20
-0.18667483
30
-108.575264
11
-14.634516
21
-0.4599043
31
-108.44328
0
LINE
8
0
10
-14.634516
20
-0.4599043
30
-108.44328
11
-14.413005
21
-0.72509474
31
-108.305954
0
LINE
8
0
10
-14.413005
20
-0.72509474
30
-108.305954
11
-14.190313
21
-0.98233336
31
-108.16339
0
LINE
8
0
10
-14.190313
20
-0.98233336
30
-108.16339
11
-13.966738
21
-1.2317591
31
-108.01567
0
LINE
8
0
10
-13.966738
20
-1.2317591
30
-108.01567
11
-13.742628
21
-1.4735148
31
-107.862885
0
LINE
8
0
10
-13.742628
20
-1.4735148
30
-107.862885
11
-13.518324
21
-1.7077584
31
-107.70514
0
LINE
8
0
10
-13.518324
20
-1.7077584
30
-107.70514
11
-13.294096
21
-1.9346671
31
-107.5425
0
LINE
8
0
10
-13.294096
20
-1.9346671
30
-107.5425
11
-13.070306
21
-2.154406
31
-107.37513
0
LINE
8
0
10
-13.070306
20
-2.154406
30
-107.37513
11
-12.847202
21
-2.3671775
31
-107.20309
0
LINE
8
0
10
-12.847202
20
-2.3671775
30
-107.20309
11
-12.625078
21
-2.573191
31
-107.0265
0
LINE
8
0
10
-12.625078
20
-2.573191
30
-107.0265
11
-12.4042
21
-2.772677
31
-106.84547
0
LINE
8
0
10
-12.4042
20
-2.772677
30
-106.84547
11
-12.184822
21
-2.9658413
31
-106.66011
0
LINE
8
0
10
-12.184822
20
-2.9658413
30
-106.66011
11
-11.967199
21
-3.152939
31
-106.47056
0
LINE
8
0
10
-11.967199
20
-3.152939
30
-106.47056
11
-11.751529
21
-3.3342128
31
-106.27691
0
LINE
8
0
10
-11.751529
20
-3.3342128
30
-106.27691
11
-11.538034
21
-3.509923
31
-106.0793
0
LINE
8
0
10
-11.538034
20
-3.509923
30
-106.0793
11
-11.326912
21
-3.680347
31
-105.877846
0
LINE
8
0
10
-11.326912
20
-3.680347
30
-105.877846
11
-11.118363
21
-3.8457284
31
-105.67269
0
LINE
8
0
10
-11.118363
20
-3.8457284
30
-105.67269
11
-10.912516
21
-4.006382
31
-105.46394
0
LINE
8
0
10
-10.912516
20
-4.006382
30
-105.46394
11
-10.70956
21
-4.1625595
31
-105.25176
0
LINE
8
0
10
-10.70956
20
-4.1625595
30
-105.25176
11
-10.509582
21
-4.3145804
31
-105.036224
0
LINE
8
0
10
-10.509582
20
-4.3145804
30
-105.036224
11
-10.312738
21
-4.462731
31
-104.81753
0
LINE
8
0
10
-10.312738
20
-4.462731
30
-104.81753
11
-10.119141
21
-4.607289
31
-104.5958
0
LINE
8
0
10
-10.119141
20
-4.607289
30
-104.5958
11
-9.928837
21
-4.748587
31
-104.371155
0
LINE
8
0
10
-9.928837
20
-4.748587
30
-104.371155
11
-9.741934
21
-4.886898
31
-104.14377
0
LINE
8
0
10
-9.741934
20
-4.886898
30
-104.14377
11
-9.558442
21
-5.0225525
31
-103.91373
0
LINE
8
0
10
-9.558442
20
-5.0225525
30
-103.91373
11
-9.378431
21
-5.1558475
31
-103.68124
0
LINE
8
0
10
-9.378431
20
-5.1558475
30
-103.68124
11
-9.201929
21
-5.287068
31
-103.446434
0
LINE
8
0
10
-9.201929
20
-5.287068
30
-103.446434
11
-9.02891
21
-5.416548
31
-103.209435
0
LINE
8
0
10
-9.02891
20
-5.416548
30
-103.209435
11
-8.85939
21
-5.5445576
31
-102.97043
0
LINE
8
0
10
-8.85939
20
-5.5445576
30
-102.97043
11
-8.693306
21
-5.671422
31
-102.72951
0
LINE
8
0
10
-8.693306
20
-5.671422
30
-102.72951
11
-8.530641
21
-5.7974286
31
-102.486885
0
LINE
8
0
10
-8.530641
20
-5.7974286
30
-102.486885
11
-8.371341
21
-5.922851
31
-102.242714
0
LINE
8
0
10
-8.371341
20
-5.922851
30
-102.242714
11
-8.215304
21
-6.048003
31
-101.9971
0
LINE
8
0
10
-8.215304
20
-6.048003
30
-101.9971
11
-8.062467
21
-6.173138
31
-101.750244
0
LINE
8
0
10
-8.062467
20
-6.173138
30
-101.750244
11
-7.9126935
21
-6.2985544
31
-101.50225
0
LINE
8
0
10
-7.9126935
20
-6.2985544
30
-101.50225
11
-7.7658834
21
-6.424509
31
-101.25332
0
LINE
8
0
10
-7.7658834
20
-6.424509
30
-101.25332
11
-7.62191
21
-6.551247
31
-101.00362
0
LINE
8
0
10
-7.62191
20
-6.551247
30
-101.00362
11
-7.4806004
21
-6.6790447
31
-100.753265
0
LINE
8
0
10
-7.4806004
20
-6.6790447
30
-100.753265
11
-7.3418045
21
-6.8081307
31
-100.50242
0
LINE
8
0
10
-7.3418045
20
-6.8081307
30
-100.50242
11
-7.205363
21
-6.938725
31
-100.25129
0
LINE
8
0
10
-7.205363
20
-6.938725
30
-100.25129
11
-7.0710607
21
-7.071075
31
-99.999985
0
LINE
8
0
10
-7.0710607
20
-7.071075
30
-99.999985
11
-6.9387245
21
-7.2053633
31
-99.7487
0
LINE
8
0
10
-6.9387245
20
-7.2053633
30
-99.7487
11
-6.8081303
21
-7.341805
31
-99.497574
0
LINE
8
0
10
-6.8081303
20
-7.341805
30
-99.497574
11
-6.679044
21
-7.4806004
31
-99.24674
0
LINE
8
0
10
-6.679044
20
-7.4806004
30
-99.24674
11
-6.551247
21
-7.621912
31
-98.996376
0
LINE
8
0
10
-6.551247
20
-7.621912
30
-98.996376
11
-6.4245086
21
-7.765884
31
-98.74667
0
LINE
8
0
10
-6.4245086
20
-7.765884
30
-98.74667
11
-6.298554
21
-7.9126954
31
-98.49774
0
LINE
8
0
10
-6.298554
20
-7.9126954
30
-98.49774
11
-6.1731358
21
-8.062466
31
-98.24976
0
LINE
8
0
10
-6.1731358
20
-8.062466
30
-98.24976
11
-6.0480013
21
-8.215302
31
-98.002914
0
LINE
8
0
10
-6.0480013
20
-8.215302
30
-98.002914
11
-5.9228516
21
-8.371344
31
-97.75728
0
LINE
8
0
10
-5.9228516
20
-8.371344
30
-97.75728
11
-5.797429
21
-8.5306425
31
-97.51311
0
LINE
8
0
10
-5.797429
20
-8.5306425
30
-97.51311
11
-5.6714225
21
-8.693309
31
-97.270485
0
LINE
8
0
10
-5.6714225
20
-8.693309
30
-97.270485
11
-5.5445547
21
-8.859387
31
-97.02958
0
LINE
8
0
10
-5.5445547
20
-8.859387
30
-97.02958
11
-5.416544
21
-9.028907
31
-96.79057
0
LINE
8
0
10
-5.416544
20
-9.028907
30
-96.79057
11
-5.2870684
21
-9.201933
31
-96.55356
0
LINE
8
0
10
-5.2870684
20
-9.201933
30
-96.55356
11
-5.1558475
21
-9.378434
31
-96.318756
0
LINE
8
0
10
-5.1558475
20
-9.378434
30
-96.318756
11
-5.022554
21
-9.558446
31
-96.086266
0
LINE
8
0
10
-5.022554
20
-9.558446
30
-96.086266
11
-4.886895
21
-9.741929
31
-95.85624
0
LINE
8
0
10
-4.886895
20
-9.741929
30
-95.85624
11
-4.7485843
21
-9.928833
31
-95.62885
0
LINE
8
0
10
-4.7485843
20
-9.928833
30
-95.62885
11
-4.6072893
21
-10.1191435
31
-95.40419
0
LINE
8
0
10
-4.6072893
20
-10.1191435
30
-95.40419
11
-4.462732
21
-10.312743
31
-95.182465
0
LINE
8
0
10
-4.462732
20
-10.312743
30
-95.182465
11
-4.314581
21
-10.509585
31
-94.96377
0
LINE
8
0
10
-4.314581
20
-10.509585
30
-94.96377
11
-4.162556
21
-10.709553
31
-94.74825
0
LINE
8
0
10
-4.162556
20
-10.709553
30
-94.74825
11
-4.006379
21
-10.91251
31
-94.536064
0
LINE
8
0
10
-4.006379
20
-10.91251
30
-94.536064
11
-3.8457289
21
-11.118368
31
-94.3273
0
LINE
8
0
10
-3.8457289
20
-11.118368
30
-94.3273
11
-3.6803474
21
-11.326918
31
-94.12215
0
LINE
8
0
10
-3.6803474
20
-11.326918
30
-94.12215
11
-3.509924
21
-11.538039
31
-93.9207
0
LINE
8
0
10
-3.509924
20
-11.538039
30
-93.9207
11
-3.3342023
21
-11.751537
31
-93.72308
0
LINE
8
0
10
-3.3342023
20
-11.751537
30
-93.72308
11
-3.152936
21
-11.967192
31
-93.52945
0
LINE
8
0
10
-3.152936
20
-11.967192
30
-93.52945
11
-2.965833
21
-12.184843
31
-93.339874
0
LINE
8
0
10
-2.965833
20
-12.184843
30
-93.339874
11
-2.772677
21
-12.404204
31
-93.15453
0
LINE
8
0
10
-2.772677
20
-12.404204
30
-93.15453
11
-2.573191
21
-12.625084
31
-92.973495
0
LINE
8
0
10
-2.573191
20
-12.625084
30
-92.973495
11
-2.3671653
21
-12.84721
31
-92.796906
0
LINE
8
0
10
-2.3671653
20
-12.84721
30
-92.796906
11
-2.1544037
21
-13.070297
31
-92.62488
0
LINE
8
0
10
-2.1544037
20
-13.070297
30
-92.62488
11
-1.9346561
21
-13.294117
31
-92.45747
0
LINE
8
0
10
-1.9346561
20
-13.294117
30
-92.45747
11
-1.7077452
21
-13.5183325
31
-92.29486
0
LINE
8
0
10
-1.7077452
20
-13.5183325
30
-92.29486
11
-1.4735143
21
-13.742634
31
-92.137115
0
LINE
8
0
10
-1.4735143
20
-13.742634
30
-92.137115
11
-1.2317452
21
-13.966746
31
-91.98433
0
LINE
8
0
10
-1.2317452
20
-13.966746
30
-91.98433
11
-0.9823315
21
-14.190304
31
-91.83661
0
LINE
8
0
10
-0.9823315
20
-14.190304
30
-91.83661
11
-0.72510684
21
-14.412995
31
-91.69405
0
LINE
8
0
10
-0.72510684
20
-14.412995
30
-91.69405
11
-0.45988935
21
-14.634523
31
-91.55671
0
LINE
8
0
10
-0.45988935
20
-14.634523
30
-91.55671
11
-0.18667369
21
-14.854433
31
-91.42473
0
LINE
8
0
10
-0.18667369
20
-14.854433
30
-91.42473
11
0.094689414
21
-15.072418
31
-91.29817
0
LINE
8
0
10
0.094689414
20
-15.072418
30
-91.29817
11
0.3843103
21
-15.288123
31
-91.17709
0
LINE
8
0
10
0.3843103
20
-15.288123
30
-91.17709
11
0.6822261
21
-15.501175
31
-91.06158
0
LINE
8
0
10
0.6822261
20
-15.501175
30
-91.06158
11
0.98845243
21
-15.711144
31
-90.95173
0
LINE
8
0
10
0.98845243
20
-15.711144
30
-90.95173
11
1.303082
21
-15.91769
31
-90.84759
0
LINE
8
0
10
1.303082
20
-15.91769
30
-90.84759
11
1.6260653
21
-16.120394
31
-90.74924
0
LINE
8
0
10
1.6260653
20
-16.120394
30
-90.74924
11
1.9574633
21
-16.318893
31
-90.656715
0
LINE
8
0
10
1.9574633
20
-16.318893
30
-90.656715
11
2.2972248
21
-16.512793
31
-90.57009
0
LINE
8
0
10
2.2972248
20
-16.512793
30
-90.57009
11
2.645271
21
-16.701643
31
-90.48943
0
LINE
8
0
10
2.645271
20
-16.701643
30
-90.48943
11
3.0016165
21
-16.885092
31
-90.41478
0
LINE
8
0
10
3.0016165
20
-16.885092
30
-90.41478
11
3.3661146
21
-17.06271
31
-90.34618
0
LINE
8
0
10
3.3661146
20
-17.06271
30
-90.34618
11
3.7387438
21
-17.234127
31
-90.28368
0
LINE
8
0
10
3.7387438
20
-17.234127
30
-90.28368
11
4.1193614
21
-17.398945
31
-90.22732
0
LINE
8
0
10
4.1193614
20
-17.398945
30
-90.22732
11
4.5077906
21
-17.556723
31
-90.177124
0
LINE
8
0
10
4.5077906
20
-17.556723
30
-90.177124
11
4.903964
21
-17.707104
31
-90.13314
0
LINE
8
0
10
4.903964
20
-17.707104
30
-90.13314
11
5.307638
21
-17.849678
31
-90.09539
0
LINE
8
0
10
5.307638
20
-17.849678
30
-90.09539
11
5.7187076
21
-17.984083
31
-90.06389
0
LINE
8
0
10
5.7187076
20
-17.984083
30
-90.06389
11
6.1369367
21
-18.10994
31
-90.038666
0
LINE
8
0
10
6.1369367
20
-18.10994
30
-90.038666
11
6.5620546
21
-18.226835
31
-90.01973
0
LINE
8
0
10
6.5620546
20
-18.226835
30
-90.01973
11
6.9939127
21
-18.33443
31
-90.0071
0
LINE
8
0
10
6.9939127
20
-18.33443
30
-90.0071
11
7.432173
21
-18.432356
31
-90.00079
0
LINE
8
0
10
7.432173
20
-18.432356
30
-90.00079
11
7.87665
21
-18.520267
31
-90.00079
0
LINE
8
0
10
7.87665
20
-18.520267
30
-90.00079
11
8.327023
21
-18.597836
31
-90.0071
0
LINE
8
0
10
8.327023
20
-18.597836
30
-90.0071
11
8.782928
21
-18.664692
31
-90.01973
0
LINE
8
0
10
8.782928
20
-18.664692
30
-90.01973
11
9.244143
21
-18.720533
31
-90.038666
0
LINE
8
0
10
9.244143
20
-18.720533
30
-90.038666
11
9.710243
21
-18.765047
31
-90.06389
0
LINE
8
0
10
9.710243
20
-18.765047
30
-90.06389
11
10.180971
21
-18.797934
31
-90.09538
0
LINE
8
0
10
10.180971
20
-18.797934
30
-90.09538
11
10.655928
21
-18.818924
31
-90.13314
0
LINE
8
0
10
10.655928
20
-18.818924
30
-90.13314
11
11.13467
21
-18.827717
31
-90.177124
0
LINE
8
0
10
11.13467
20
-18.827717
30
-90.177124
11
11.616909
21
-18.824059
31
-90.22732
0
LINE
8
0
10
11.616909
20
-18.824059
30
-90.22732
11
12.102199
21
-18.807709
31
-90.28368
0
LINE
8
0
10
12.102199
20
-18.807709
30
-90.28368
11
12.590073
21
-18.778452
31
-90.34618
0
LINE
8
0
10
12.590073
20
-18.778452
30
-90.34618
11
13.080208
21
-18.736065
31
-90.41479
0
LINE
8
0
10
13.080208
20
-18.736065
30
-90.41479
11
13.572056
21
-18.680346
31
-90.48943
0
LINE
8
0
10
13.572056
20
-18.680346
30
-90.48943
11
14.06527
21
-18.611103
31
-90.5701
0
LINE
8
0
10
14.06527
20
-18.611103
30
-90.5701
11
14.559345
21
-18.528183
31
-90.656715
0
LINE
8
0
10
14.559345
20
-18.528183
30
-90.656715
11
15.05377
21
-18.431456
31
-90.74922
0
LINE
8
0
10
15.05377
20
-18.431456
30
-90.74922
11
15.548174
21
-18.32078
31
-90.847595
0
LINE
8
0
10
15.548174
20
-18.32078
30
-90.847595
11
16.041962
21
-18.196047
31
-90.95173
0
LINE
8
0
10
16.041962
20
-18.196047
30
-90.95173
11
16.534702
21
-18.057163
31
-91.061584
0
LINE
8
0
10
16.534702
20
-18.057163
30
-91.061584
11
17.02599
21
-17.904018
31
-91.17709
0
LINE
8
0
10
17.02599
20
-17.904018
30
-91.17709
11
17.515146
21
-17.736637
31
-91.29816
0
LINE
8
0
10
17.515146
20
-17.736637
30
-91.29816
11
18.001759
21
-17.554953
31
-91.42472
0
LINE
8
0
10
18.001759
20
-17.554953
30
-91.42472
11
18.485378
21
-17.358936
31
-91.556725
0
LINE
8
0
10
18.485378
20
-17.358936
30
-91.556725
11
18.965427
21
-17.148588
31
-91.694046
0
LINE
8
0
10
18.965427
20
-17.148588
30
-91.694046
11
19.44136
21
-16.923983
31
-91.8366
0
LINE
8
0
10
19.44136
20
-16.923983
30
-91.8366
11
19.91276
21
-16.685108
31
-91.98433
0
LINE
8
0
10
19.91276
20
-16.685108
30
-91.98433
11
20.37902
21
-16.432089
31
-92.1371
0
LINE
8
0
10
20.37902
20
-16.432089
30
-92.1371
11
20.839737
21
-16.164963
31
-92.29487
0
LINE
8
0
10
20.839737
20
-16.164963
30
-92.29487
11
21.294327
21
-15.88385
31
-92.45749
0
LINE
8
0
10
21.294327
20
-15.88385
30
-92.45749
11
21.74226
21
-15.588919
31
-92.62486
0
LINE
8
0
10
21.74226
20
-15.588919
30
-92.62486
11
22.183113
21
-15.280254
31
-92.796906
0
LINE
8
0
10
22.183113
20
-15.280254
30
-92.796906
11
22.616308
21
-14.958088
31
-92.97349
0
LINE
8
0
10
22.616308
20
-14.958088
30
-92.97349
11
23.041443
21
-14.62255
31
-93.15453
0
LINE
8
0
10
23.041443
20
-14.62255
30
-93.15453
11
23.457968
21
-14.273867
31
-93.33989
0
LINE
8
0
10
23.457968
20
-14.273867
30
-93.33989
11
23.865376
21
-13.912312
31
-93.529434
0
LINE
8
0
10
23.865376
20
-13.912312
30
-93.529434
11
24.26327
21
-13.538055
31
-93.72308
0
LINE
8
0
10
24.26327
20
-13.538055
30
-93.72308
11
24.651108
21
-13.15144
31
-93.920685
0
LINE
8
0
10
24.651108
20
-13.15144
30
-93.920685
11
25.028524
21
-12.752675
31
-94.122154
0
LINE
8
0
10
25.028524
20
-12.752675
30
-94.122154
11
25.395012
21
-12.342092
31
-94.32732
0
LINE
8
0
10
25.395012
20
-12.342092
30
-94.32732
11
25.750118
21
-11.920062
31
-94.53605
0
LINE
8
0
10
25.750118
20
-11.920062
30
-94.53605
11
26.09348
21
-11.486834
31
-94.74825
0
LINE
8
0
10
26.09348
20
-11.486834
30
-94.74825
11
26.424622
21
-11.0428505
31
-94.96375
0
LINE
8
0
10
26.424622
20
-11.0428505
30
-94.96375
11
26.743223
21
-10.588396
31
-95.182465
0
LINE
8
0
10
26.743223
20
-10.588396
30
-95.182465
11
27.048851
21
-10.123893
31
-95.404205
0
LINE
8
0
10
27.048851
20
-10.123893
30
-95.404205
11
27.34111
21
-9.649799
31
-95.62884
0
LINE
8
0
10
27.34111
20
-9.649799
30
-95.62884
11
27.619707
21
-9.166433
31
-95.85624
0
LINE
8
0
10
27.619707
20
-9.166433
30
-95.85624
11
27.884275
21
-8.674275
31
-96.08628
0
LINE
8
0
10
27.884275
20
-8.674275
30
-96.08628
11
28.13446
21
-8.173818
31
-96.318756
0
LINE
8
0
10
28.13446
20
-8.173818
30
-96.318756
11
28.370003
21
-7.6654186
31
-96.55358
0
LINE
8
0
10
28.370003
20
-7.6654186
30
-96.55358
11
28.590582
21
-7.1496496
31
-96.79056
0
LINE
8
0
10
28.590582
20
-7.1496496
30
-96.79056
11
28.79595
21
-6.6268873
31
-97.02958
0
LINE
8
0
10
28.79595
20
-6.6268873
30
-97.02958
11
28.985851
21
-6.0976768
31
-97.2705
0
LINE
8
0
10
28.985851
20
-6.0976768
30
-97.2705
11
29.160015
21
-5.5625715
31
-97.51311
0
LINE
8
0
10
29.160015
20
-5.5625715
30
-97.51311
11
29.318268
21
-5.021975
31
-97.7573
0
LINE
8
0
10
29.318268
20
-5.021975
30
-97.7573
11
29.460388
21
-4.4765167
31
-98.00289
0
LINE
8
0
10
29.460388
20
-4.4765167
30
-98.00289
11
29.586216
21
-3.926612
31
-98.24977
0
LINE
8
0
10
29.586216
20
-3.926612
30
-98.24977
11
29.69559
21
-3.3728507
31
-98.497765
0
LINE
8
0
10
29.69559
20
-3.3728507
30
-98.497765
11
29.788357
21
-2.8158286
31
-98.74667
0
LINE
8
0
10
29.788357
20
-2.8158286
30
-98.74667
11
29.864424
21
-2.2559776
31
-98.99639
0
LINE
8
0
10
29.864424
20
-2.2559776
30
-98.99639
11
29.923683
21
-1.693961
31
-99.24673
0
LINE
8
0
10
29.923683
20
-1.693961
30
-99.24673
11
29.966064
21
-1.130217
31
-99.49756
0
LINE
8
0
10
29.966064
20
-1.130217
30
-99.49756
11
29.991514
21
-0.56535816
31
-99.74872
0
LINE
8
0
10
29.991514
20
-0.56535816
30
-99.74872
11
30.0
21
1.4309855E-6
31
-100.00001
0
LINE
8
0
10
30.0
20
1.4309855E-6
30
-100.00001
11
30.0
21
0.0
31
-100.0
0
LINE
8
0
10
30.0
20
1.4309855E-6
30
-100.00001
11
30.0
21
0.0
31
-100.0
0
ENDSEC
0
EOF
